open-gate-naskh-regular.ufo
<glyph name="period" format="2">
  <advance width="210"/>
  <unicode hex="002E"/>
  <outline>
    <contour>
      <point x="100" y="30" type="curve" smooth="yes"/>
      <point x="116" y="30"/>
      <point x="170" y="85"/>
      <point x="170" y="100" type="curve" smooth="yes"/>
      <point x="170" y="116"/>
      <point x="116" y="170"/>
      <point x="100" y="170" type="curve" smooth="yes"/>
      <point x="84" y="170"/>
      <point x="30" y="116"/>
      <point x="30" y="100" type="curve" smooth="yes"/>
      <point x="30" y="85"/>
      <point x="84" y="30"/>
    </contour>
  </outline>
</glyph>
<glyph name="hamza-ar" format="2">
  <advance width="300"/>
  <unicode hex="0621"/>
  <anchor x="160" y="14" name="bottom"/>
  <anchor x="157" y="309" name="top"/>
  <outline>
    <contour>
      <point x="24" y="0" type="curve" smooth="yes"/>
      <point x="43" y="0"/>
      <point x="261" y="62"/>
      <point x="274" y="75" type="curve" smooth="yes"/>
      <point x="283" y="84"/>
      <point x="289" y="141"/>
      <point x="274" y="141" type="curve" smooth="yes"/>
      <point x="258" y="141"/>
      <point x="227" y="125"/>
      <point x="207" y="125" type="curve" smooth="yes"/>
      <point x="187" y="125"/>
      <point x="109" y="156"/>
      <point x="109" y="179" type="curve" smooth="yes"/>
      <point x="109" y="196"/>
      <point x="122" y="209"/>
      <point x="142" y="209" type="curve" smooth="yes"/>
      <point x="157" y="209"/>
      <point x="182" y="173"/>
      <point x="203" y="173" type="curve" smooth="yes"/>
      <point x="219" y="173"/>
      <point x="256" y="208"/>
      <point x="256" y="222" type="curve" smooth="yes"/>
      <point x="256" y="247"/>
      <point x="223" y="281"/>
      <point x="181" y="281" type="curve" smooth="yes"/>
      <point x="135" y="281"/>
      <point x="34" y="196"/>
      <point x="34" y="149" type="curve" smooth="yes"/>
      <point x="34" y="108"/>
      <point x="64" y="99"/>
      <point x="64" y="89" type="curve" smooth="yes"/>
      <point x="64" y="78"/>
      <point x="34" y="62"/>
      <point x="27" y="53" type="curve" smooth="yes"/>
      <point x="22" y="47"/>
      <point x="13" y="23"/>
      <point x="13" y="10" type="curve" smooth="yes"/>
      <point x="13" y="3"/>
      <point x="19" y="0"/>
    </contour>
  </outline>
</glyph>
<glyph name="alef-ar" format="2">
  <advance width="202"/>
  <unicode hex="0627"/>
  <outline>
    <contour>
      <point x="122" y="-16" type="curve" smooth="yes"/>
      <point x="140" y="-16"/>
      <point x="162" y="119"/>
      <point x="162" y="160" type="curve" smooth="yes"/>
      <point x="162" y="300"/>
      <point x="149" y="574"/>
      <point x="117" y="686" type="curve" smooth="yes"/>
      <point x="114" y="697"/>
      <point x="108" y="700"/>
      <point x="102" y="700" type="curve" smooth="yes"/>
      <point x="87" y="700"/>
      <point x="50" y="627"/>
      <point x="50" y="604" type="curve" smooth="yes"/>
      <point x="50" y="546"/>
      <point x="108" y="315"/>
      <point x="108" y="0" type="curve" smooth="yes"/>
      <point x="108" y="-12"/>
      <point x="112" y="-16"/>
    </contour>
  </outline>
</glyph>
<glyph name="hah-ar" format="2">
  <advance width="585"/>
  <unicode hex="062D"/>
  <outline>
    <contour>
      <point x="66" y="168" type="curve" smooth="yes"/>
      <point x="75" y="168"/>
      <point x="97" y="199"/>
      <point x="124" y="199" type="curve" smooth="yes"/>
      <point x="175" y="199"/>
      <point x="281" y="184"/>
      <point x="281" y="171" type="curve" smooth="yes"/>
      <point x="281" y="144"/>
      <point x="20" y="76"/>
      <point x="20" y="-167" type="curve" smooth="yes"/>
      <point x="20" y="-324"/>
      <point x="161" y="-450"/>
      <point x="304" y="-450" type="curve" smooth="yes"/>
      <point x="366" y="-450"/>
      <point x="585" y="-377"/>
      <point x="585" y="-344" type="curve" smooth="yes"/>
      <point x="585" y="-334"/>
      <point x="578" y="-330"/>
      <point x="567" y="-330" type="curve" smooth="yes"/>
      <point x="364" y="-330" type="line" smooth="yes"/>
      <point x="195" y="-330"/>
      <point x="94" y="-270"/>
      <point x="94" y="-130" type="curve" smooth="yes"/>
      <point x="94" y="8"/>
      <point x="258" y="140"/>
      <point x="404" y="140" type="curve" smooth="yes"/>
      <point x="449" y="140"/>
      <point x="484" y="132"/>
      <point x="507" y="132" type="curve" smooth="yes"/>
      <point x="526" y="132"/>
      <point x="561" y="199"/>
      <point x="561" y="219" type="curve" smooth="yes"/>
      <point x="561" y="226"/>
      <point x="552" y="233"/>
      <point x="541" y="233" type="curve" smooth="yes"/>
      <point x="380" y="233"/>
      <point x="242" y="294"/>
      <point x="161" y="294" type="curve" smooth="yes"/>
      <point x="124" y="294"/>
      <point x="54" y="204"/>
      <point x="54" y="181" type="curve" smooth="yes"/>
      <point x="54" y="171"/>
      <point x="58" y="168"/>
    </contour>
  </outline>
</glyph>
<glyph name="dal-ar" format="2">
  <advance width="378"/>
  <unicode hex="062F"/>
  <outline>
    <contour>
      <point x="106" y="0" type="curve" smooth="yes"/>
      <point x="72" y="0"/>
      <point x="30" y="9"/>
      <point x="30" y="90" type="curve" smooth="yes"/>
      <point x="30" y="107"/>
      <point x="36" y="118"/>
      <point x="46" y="118" type="curve" smooth="yes"/>
      <point x="58" y="118"/>
      <point x="64" y="100"/>
      <point x="82" y="100" type="curve" smooth="yes"/>
      <point x="280" y="100"/>
      <point x="298" y="105"/>
      <point x="298" y="129" type="curve" smooth="yes"/>
      <point x="298" y="212"/>
      <point x="150" y="296"/>
      <point x="150" y="332" type="curve" smooth="yes"/>
      <point x="150" y="350"/>
      <point x="170" y="420"/>
      <point x="194" y="420" type="curve" smooth="yes"/>
      <point x="223" y="420"/>
      <point x="348" y="267"/>
      <point x="348" y="156" type="curve" smooth="yes"/>
      <point x="348" y="29"/>
      <point x="267" y="0"/>
    </contour>
  </outline>
</glyph>
<glyph name="reh-ar" format="2">
  <advance width="427"/>
  <unicode hex="0631"/>
  <outline>
    <contour>
      <point x="228" y="-252" type="curve" smooth="yes"/>
      <point x="145" y="-252"/>
      <point x="10" y="-163"/>
      <point x="10" y="-136" type="curve" smooth="yes"/>
      <point x="10" y="-127"/>
      <point x="14" y="-123"/>
      <point x="22" y="-123" type="curve" smooth="yes"/>
      <point x="51" y="-123"/>
      <point x="144" y="-151"/>
      <point x="220" y="-151" type="curve" smooth="yes"/>
      <point x="256" y="-151"/>
      <point x="366" y="-13"/>
      <point x="366" y="36" type="curve" smooth="yes"/>
      <point x="366" y="59"/>
      <point x="283" y="156"/>
      <point x="283" y="178" type="curve" smooth="yes"/>
      <point x="283" y="207"/>
      <point x="311" y="282"/>
      <point x="327" y="282" type="curve" smooth="yes"/>
      <point x="347" y="282"/>
      <point x="417" y="102"/>
      <point x="417" y="64" type="curve" smooth="yes"/>
      <point x="417" y="-11"/>
      <point x="351" y="-252"/>
    </contour>
  </outline>
</glyph>
<glyph name="seen-ar" format="2">
  <advance width="1067"/>
  <unicode hex="0633"/>
  <outline>
    <contour>
      <point x="292" y="-320" type="curve" smooth="yes"/>
      <point x="85" y="-320"/>
      <point x="20" y="-214"/>
      <point x="20" y="-136" type="curve" smooth="yes"/>
      <point x="20" y="-4"/>
      <point x="76" y="100"/>
      <point x="96" y="100" type="curve" smooth="yes"/>
      <point x="110" y="100"/>
      <point x="114" y="89"/>
      <point x="114" y="74" type="curve" smooth="yes"/>
      <point x="114" y="54"/>
      <point x="88" y="2"/>
      <point x="88" y="-54" type="curve" smooth="yes"/>
      <point x="88" y="-176"/>
      <point x="195" y="-220"/>
      <point x="346" y="-220" type="curve" smooth="yes"/>
      <point x="463" y="-220"/>
      <point x="586" y="-167"/>
      <point x="586" y="-118" type="curve" smooth="yes"/>
      <point x="586" y="-29"/>
      <point x="517" y="89"/>
      <point x="517" y="119" type="curve" smooth="yes"/>
      <point x="517" y="139"/>
      <point x="567" y="211"/>
      <point x="591" y="211" type="curve" smooth="yes"/>
      <point x="610" y="211"/>
      <point x="614" y="167"/>
      <point x="621" y="148" type="curve" smooth="yes"/>
      <point x="633" y="116"/>
      <point x="653" y="100"/>
      <point x="686" y="100" type="curve" smooth="yes"/>
      <point x="763" y="100"/>
      <point x="799" y="211"/>
      <point x="825" y="211" type="curve" smooth="yes"/>
      <point x="836" y="211"/>
      <point x="841" y="202"/>
      <point x="841" y="189" type="curve" smooth="yes"/>
      <point x="841" y="133"/>
      <point x="887" y="100"/>
      <point x="922" y="100" type="curve" smooth="yes"/>
      <point x="965" y="100"/>
      <point x="991" y="121"/>
      <point x="991" y="140" type="curve" smooth="yes"/>
      <point x="991" y="170"/>
      <point x="940" y="200"/>
      <point x="940" y="227" type="curve" smooth="yes"/>
      <point x="940" y="260"/>
      <point x="965" y="325"/>
      <point x="981" y="325" type="curve" smooth="yes"/>
      <point x="1007" y="325"/>
      <point x="1047" y="242"/>
      <point x="1047" y="175" type="curve" smooth="yes"/>
      <point x="1047" y="71"/>
      <point x="990" y="0"/>
      <point x="903" y="0" type="curve" smooth="yes"/>
      <point x="830" y="0"/>
      <point x="814" y="66"/>
      <point x="794" y="66" type="curve" smooth="yes"/>
      <point x="777" y="66"/>
      <point x="768" y="0"/>
      <point x="668" y="0" type="curve" smooth="yes"/>
      <point x="657" y="0"/>
      <point x="653" y="-10"/>
      <point x="653" y="-19" type="curve" smooth="yes"/>
      <point x="653" y="-159"/>
      <point x="589" y="-320"/>
    </contour>
  </outline>
</glyph>
<glyph name="tah-ar" format="2">
  <advance width="816"/>
  <unicode hex="0637"/>
  <outline>
    <contour>
      <point x="0" y="92" type="curve" smooth="yes"/>
      <point x="0" y="106"/>
      <point x="6" y="118"/>
      <point x="23" y="118" type="curve" smooth="yes"/>
      <point x="58" y="118"/>
      <point x="120" y="100"/>
      <point x="252" y="100" type="curve" smooth="yes"/>
      <point x="294" y="100"/>
      <point x="313" y="109"/>
      <point x="313" y="154" type="curve" smooth="yes"/>
      <point x="313" y="307"/>
      <point x="280" y="458"/>
      <point x="264" y="556" type="curve" smooth="yes"/>
      <point x="259" y="587"/>
      <point x="243" y="600"/>
      <point x="243" y="630" type="curve" smooth="yes"/>
      <point x="243" y="652"/>
      <point x="274" y="700"/>
      <point x="291" y="700" type="curve" smooth="yes"/>
      <point x="307" y="700"/>
      <point x="311" y="667"/>
      <point x="328" y="645" type="curve" smooth="yes"/>
      <point x="344" y="623"/>
      <point x="365" y="609"/>
      <point x="365" y="599" type="curve" smooth="yes"/>
      <point x="365" y="584"/>
      <point x="347" y="556"/>
      <point x="347" y="542" type="curve" smooth="yes"/>
      <point x="347" y="543"/>
      <point x="382" y="150"/>
      <point x="388" y="150" type="curve" smooth="yes"/>
      <point x="400" y="150"/>
      <point x="524" y="325"/>
      <point x="659" y="325" type="curve" smooth="yes"/>
      <point x="725" y="325"/>
      <point x="816" y="201"/>
      <point x="816" y="148" type="curve" smooth="yes"/>
      <point x="816" y="23"/>
      <point x="672" y="0"/>
      <point x="632" y="0" type="curve" smooth="yes"/>
      <point x="182" y="0" type="line" smooth="yes"/>
      <point x="156" y="0"/>
      <point x="0" y="74"/>
    </contour>
    <contour>
      <point x="438" y="99" type="curve" smooth="yes"/>
      <point x="718" y="100" type="line" smooth="yes"/>
      <point x="735" y="100"/>
      <point x="742" y="103"/>
      <point x="742" y="113" type="curve" smooth="yes"/>
      <point x="742" y="131"/>
      <point x="653" y="219"/>
      <point x="613" y="219" type="curve" smooth="yes"/>
      <point x="556" y="219"/>
      <point x="417" y="132"/>
      <point x="417" y="111" type="curve" smooth="yes"/>
      <point x="417" y="102"/>
      <point x="427" y="99"/>
    </contour>
  </outline>
</glyph>
<glyph name="ain-ar" format="2">
  <advance width="535"/>
  <unicode hex="0639"/>
  <outline>
    <contour>
      <point x="334" y="343" type="curve" smooth="yes"/>
      <point x="317" y="343"/>
      <point x="254" y="353"/>
      <point x="217" y="353" type="curve" smooth="yes"/>
      <point x="182" y="353"/>
      <point x="122" y="331"/>
      <point x="122" y="305" type="curve" smooth="yes"/>
      <point x="122" y="269"/>
      <point x="194" y="194"/>
      <point x="253" y="194" type="curve" smooth="yes"/>
      <point x="292" y="194"/>
      <point x="379" y="253"/>
      <point x="397" y="253" type="curve" smooth="yes"/>
      <point x="406" y="253"/>
      <point x="413" y="249"/>
      <point x="413" y="234" type="curve" smooth="yes"/>
      <point x="413" y="221"/>
      <point x="377" y="139"/>
      <point x="366" y="126" type="curve" smooth="yes"/>
      <point x="356" y="114"/>
      <point x="34" y="50"/>
      <point x="34" y="-118" type="curve" smooth="yes"/>
      <point x="34" y="-257"/>
      <point x="164" y="-330"/>
      <point x="313" y="-330" type="curve" smooth="yes"/>
      <point x="438" y="-330"/>
      <point x="467" y="-318"/>
      <point x="504" y="-318" type="curve" smooth="yes"/>
      <point x="516" y="-318"/>
      <point x="525" y="-321"/>
      <point x="525" y="-331" type="curve" smooth="yes"/>
      <point x="525" y="-360"/>
      <point x="326" y="-450"/>
      <point x="238" y="-450" type="curve" smooth="yes"/>
      <point x="119" y="-450"/>
      <point x="-40" y="-361"/>
      <point x="-40" y="-183" type="curve" smooth="yes"/>
      <point x="-40" y="14"/>
      <point x="111" y="95"/>
      <point x="111" y="129" type="curve" smooth="yes"/>
      <point x="111" y="159"/>
      <point x="39" y="182"/>
      <point x="39" y="242" type="curve" smooth="yes"/>
      <point x="39" y="325"/>
      <point x="122" y="459"/>
      <point x="209" y="459" type="curve" smooth="yes"/>
      <point x="273" y="459"/>
      <point x="348" y="379"/>
      <point x="348" y="361" type="curve" smooth="yes"/>
      <point x="348" y="353"/>
      <point x="342" y="343"/>
    </contour>
  </outline>
</glyph>
<glyph name="kashida-ar" format="2">
  <advance width="150"/>
  <unicode hex="0640"/>
  <outline>
    <contour>
      <point x="-10" y="0" type="line"/>
      <point x="160" y="0" type="line"/>
      <point x="160" y="100" type="line"/>
      <point x="-10" y="100" type="line"/>
    </contour>
  </outline>
</glyph>
<glyph name="qaf-ar" format="2">
  <advance width="628"/>
  <unicode hex="0642"/>
  <outline>
    <contour>
      <point x="288" y="-254" type="curve" smooth="yes"/>
      <point x="138" y="-254"/>
      <point x="10" y="-206"/>
      <point x="10" y="-60" type="curve" smooth="yes"/>
      <point x="10" y="46"/>
      <point x="51" y="100"/>
      <point x="66" y="100" type="curve" smooth="yes"/>
      <point x="78" y="100"/>
      <point x="84" y="90"/>
      <point x="84" y="75" type="curve" smooth="yes"/>
      <point x="84" y="49"/>
      <point x="74" y="9"/>
      <point x="74" y="0" type="curve" smooth="yes"/>
      <point x="74" y="-129"/>
      <point x="184" y="-150"/>
      <point x="325" y="-150" type="curve" smooth="yes"/>
      <point x="503" y="-150"/>
      <point x="544" y="-52"/>
      <point x="544" y="0" type="curve" smooth="yes"/>
      <point x="544" y="18"/>
      <point x="539" y="37"/>
      <point x="528" y="37" type="curve" smooth="yes"/>
      <point x="519" y="37"/>
      <point x="494" y="0"/>
      <point x="434" y="0" type="curve" smooth="yes"/>
      <point x="377" y="0"/>
      <point x="326" y="37"/>
      <point x="326" y="100" type="curve" smooth="yes"/>
      <point x="326" y="169"/>
      <point x="420" y="296"/>
      <point x="477" y="296" type="curve" smooth="yes"/>
      <point x="527" y="296"/>
      <point x="608" y="225"/>
      <point x="608" y="46" type="curve" smooth="yes"/>
      <point x="608" y="-101"/>
      <point x="528" y="-254"/>
    </contour>
    <contour>
      <point x="446" y="195" type="curve" smooth="yes"/>
      <point x="411" y="195"/>
      <point x="373" y="143"/>
      <point x="373" y="127" type="curve" smooth="yes"/>
      <point x="373" y="106"/>
      <point x="424" y="99"/>
      <point x="449" y="99" type="curve" smooth="yes"/>
      <point x="503" y="99"/>
      <point x="532" y="106"/>
      <point x="532" y="119" type="curve" smooth="yes"/>
      <point x="532" y="134"/>
      <point x="485" y="195"/>
    </contour>
    <component base="twodotshorizontalabove-ar" xOffset="301" yOffset="-152"/>
  </outline>
</glyph>
<glyph name="kaf-ar" format="2">
  <advance width="684"/>
  <unicode hex="0643"/>
  <outline>
    <contour>
      <point x="0" y="131" type="curve" smooth="yes"/>
      <point x="0" y="42"/>
      <point x="128" y="0"/>
      <point x="360" y="0" type="curve" smooth="yes"/>
      <point x="637" y="0"/>
      <point x="667" y="41"/>
      <point x="667" y="100" type="curve" smooth="yes"/>
      <point x="667" y="137"/>
      <point x="623" y="497"/>
      <point x="621" y="516" type="curve" smooth="yes"/>
      <point x="618" y="546"/>
      <point x="646" y="569"/>
      <point x="646" y="587" type="curve" smooth="yes"/>
      <point x="646" y="606"/>
      <point x="625" y="621"/>
      <point x="610" y="640" type="curve" smooth="yes"/>
      <point x="593" y="662"/>
      <point x="585" y="700"/>
      <point x="569" y="700" type="curve" smooth="yes"/>
      <point x="547" y="700"/>
      <point x="524" y="662"/>
      <point x="540" y="565" type="curve" smooth="yes"/>
      <point x="556" y="467"/>
      <point x="598" y="249"/>
      <point x="598" y="145" type="curve" smooth="yes"/>
      <point x="598" y="109"/>
      <point x="569" y="98"/>
      <point x="337" y="100" type="curve" smooth="yes"/>
      <point x="157" y="102"/>
      <point x="58" y="127"/>
      <point x="58" y="176" type="curve" smooth="yes"/>
      <point x="58" y="228"/>
      <point x="81" y="249"/>
      <point x="81" y="267" type="curve" smooth="yes"/>
      <point x="81" y="276"/>
      <point x="73" y="285"/>
      <point x="65" y="285" type="curve" smooth="yes"/>
      <point x="49" y="285"/>
      <point x="0" y="214"/>
    </contour>
    <contour>
      <point x="413" y="196" type="curve" smooth="yes"/>
      <point x="454" y="208"/>
      <point x="489" y="256"/>
      <point x="489" y="285" type="curve" smooth="yes"/>
      <point x="489" y="305"/>
      <point x="399" y="326"/>
      <point x="399" y="341" type="curve" smooth="yes"/>
      <point x="399" y="350"/>
      <point x="408" y="358"/>
      <point x="415" y="358" type="curve" smooth="yes"/>
      <point x="425" y="358"/>
      <point x="431" y="352"/>
      <point x="440" y="352" type="curve" smooth="yes"/>
      <point x="452" y="352"/>
      <point x="471" y="376"/>
      <point x="471" y="393" type="curve" smooth="yes"/>
      <point x="471" y="400"/>
      <point x="457" y="406"/>
      <point x="445" y="406" type="curve" smooth="yes"/>
      <point x="425" y="406"/>
      <point x="333" y="343"/>
      <point x="333" y="308" type="curve" smooth="yes"/>
      <point x="333" y="275"/>
      <point x="418" y="256"/>
      <point x="418" y="247" type="curve" smooth="yes"/>
      <point x="418" y="240"/>
      <point x="387" y="223"/>
      <point x="295" y="223" type="curve" smooth="yes"/>
      <point x="261" y="223"/>
      <point x="204" y="227"/>
      <point x="186" y="227" type="curve" smooth="yes"/>
      <point x="177" y="227"/>
      <point x="172" y="223"/>
      <point x="172" y="215" type="curve" smooth="yes"/>
      <point x="172" y="204"/>
      <point x="245" y="184"/>
      <point x="268" y="184" type="curve" smooth="yes"/>
      <point x="312" y="184"/>
      <point x="388" y="189"/>
    </contour>
  </outline>
</glyph>
<glyph name="lam-ar" format="2">
  <advance width="518"/>
  <unicode hex="0644"/>
  <outline>
    <contour>
      <point x="443" y="562"/>
      <point x="447" y="669" type="curve" smooth="yes"/>
      <point x="447" y="683"/>
      <point x="440" y="700"/>
      <point x="433" y="700" type="curve" smooth="yes"/>
      <point x="415" y="700"/>
      <point x="357" y="600"/>
      <point x="357" y="578" type="curve" smooth="yes"/>
      <point x="357" y="520"/>
      <point x="435" y="93"/>
      <point x="435" y="-33" type="curve" smooth="yes"/>
      <point x="435" y="-124"/>
      <point x="290" y="-148"/>
      <point x="197" y="-148" type="curve" smooth="yes"/>
      <point x="97" y="-148"/>
      <point x="52" y="-63"/>
      <point x="52" y="36" type="curve" smooth="yes"/>
      <point x="52" y="108"/>
      <point x="71" y="129"/>
      <point x="71" y="147" type="curve" smooth="yes"/>
      <point x="71" y="156"/>
      <point x="63" y="165"/>
      <point x="55" y="165" type="curve" smooth="yes"/>
      <point x="39" y="165"/>
      <point x="0" y="74"/>
      <point x="0" y="-29" type="curve" smooth="yes"/>
      <point x="0" y="-118"/>
      <point x="28" y="-255"/>
      <point x="220" y="-256" type="curve" smooth="yes"/>
      <point x="412" y="-257"/>
      <point x="498" y="-83"/>
      <point x="498" y="26" type="curve" smooth="yes"/>
      <point x="498" y="83"/>
    </contour>
  </outline>
</glyph>
<glyph name="meem-ar" format="2">
  <advance width="401"/>
  <unicode hex="0645"/>
  <outline>
    <contour>
      <point x="129" y="211" type="curve" smooth="yes"/>
      <point x="160" y="211"/>
      <point x="381" y="130"/>
      <point x="381" y="60" type="curve" smooth="yes"/>
      <point x="381" y="35"/>
      <point x="352" y="0"/>
      <point x="333" y="0" type="curve" smooth="yes"/>
      <point x="305" y="0"/>
      <point x="256" y="11"/>
      <point x="221" y="11" type="curve" smooth="yes"/>
      <point x="118" y="11"/>
      <point x="89" y="-19"/>
      <point x="89" y="-63" type="curve" smooth="yes"/>
      <point x="89" y="-104"/>
      <point x="140" y="-251"/>
      <point x="140" y="-300" type="curve" smooth="yes"/>
      <point x="140" y="-351"/>
      <point x="84" y="-450"/>
      <point x="52" y="-450" type="curve" smooth="yes"/>
      <point x="28" y="-450"/>
      <point x="20" y="-436"/>
      <point x="20" y="-418" type="curve" smooth="yes"/>
      <point x="20" y="-383"/>
      <point x="53" y="-329"/>
      <point x="53" y="-254" type="curve" smooth="yes"/>
      <point x="53" y="-209"/>
      <point x="20" y="-52"/>
      <point x="20" y="0" type="curve" smooth="yes"/>
      <point x="20" y="90"/>
      <point x="244" y="45"/>
      <point x="244" y="67" type="curve" smooth="yes"/>
      <point x="244" y="82"/>
      <point x="106" y="125"/>
      <point x="92" y="125" type="curve" smooth="yes"/>
      <point x="74" y="125"/>
      <point x="52" y="95"/>
      <point x="40" y="95" type="curve" smooth="yes"/>
      <point x="29" y="95"/>
      <point x="23" y="103"/>
      <point x="23" y="117" type="curve" smooth="yes"/>
      <point x="23" y="136"/>
      <point x="73" y="211"/>
    </contour>
  </outline>
</glyph>
<glyph name="heh-ar" format="2">
  <advance width="395"/>
  <unicode hex="0647"/>
  <anchor x="190" y="-17" name="bottom"/>
  <anchor x="208" y="482" name="top"/>
  <outline>
    <contour>
      <point x="155" y="0" type="curve" smooth="yes"/>
      <point x="67" y="0"/>
      <point x="40" y="30"/>
      <point x="40" y="91" type="curve" smooth="yes"/>
      <point x="40" y="192"/>
      <point x="139" y="302"/>
      <point x="139" y="326" type="curve" smooth="yes"/>
      <point x="139" y="332"/>
      <point x="132" y="341"/>
      <point x="132" y="351" type="curve" smooth="yes"/>
      <point x="132" y="369"/>
      <point x="150" y="420"/>
      <point x="173" y="420" type="curve" smooth="yes"/>
      <point x="216" y="420"/>
      <point x="371" y="258"/>
      <point x="371" y="147" type="curve" smooth="yes"/>
      <point x="371" y="47"/>
      <point x="256" y="0"/>
    </contour>
    <contour>
      <point x="169" y="100" type="curve"/>
      <point x="247" y="100"/>
      <point x="278" y="125"/>
      <point x="278" y="147" type="curve" smooth="yes"/>
      <point x="278" y="183"/>
      <point x="200" y="277"/>
      <point x="176" y="277" type="curve" smooth="yes"/>
      <point x="151" y="277"/>
      <point x="95" y="192"/>
      <point x="95" y="147" type="curve" smooth="yes"/>
      <point x="95" y="127"/>
      <point x="106" y="100"/>
    </contour>
  </outline>
</glyph>
<glyph name="waw-ar" format="2">
  <advance width="441"/>
  <unicode hex="0648"/>
  <outline>
    <contour>
      <point x="210" y="-254" type="curve" smooth="yes"/>
      <point x="151" y="-254"/>
      <point x="20" y="-169"/>
      <point x="20" y="-136" type="curve" smooth="yes"/>
      <point x="20" y="-130"/>
      <point x="22" y="-125"/>
      <point x="33" y="-125" type="curve" smooth="yes"/>
      <point x="53" y="-125"/>
      <point x="141" y="-153"/>
      <point x="199" y="-153" type="curve" smooth="yes"/>
      <point x="255" y="-153"/>
      <point x="379" y="1"/>
      <point x="379" y="45" type="curve" smooth="yes"/>
      <point x="379" y="53"/>
      <point x="377" y="57"/>
      <point x="374" y="57" type="curve" smooth="yes"/>
      <point x="369" y="57"/>
      <point x="316" y="0"/>
      <point x="259" y="0" type="curve" smooth="yes"/>
      <point x="211" y="0"/>
      <point x="169" y="34"/>
      <point x="169" y="100" type="curve" smooth="yes"/>
      <point x="169" y="191"/>
      <point x="255" y="282"/>
      <point x="296" y="282" type="curve" smooth="yes"/>
      <point x="355" y="282"/>
      <point x="421" y="145"/>
      <point x="421" y="58" type="curve" smooth="yes"/>
      <point x="421" y="-19"/>
      <point x="339" y="-254"/>
    </contour>
    <contour>
      <point x="285" y="185" type="curve" smooth="yes"/>
      <point x="255" y="185"/>
      <point x="206" y="145"/>
      <point x="206" y="129" type="curve" smooth="yes"/>
      <point x="206" y="101"/>
      <point x="267" y="100"/>
      <point x="282" y="100" type="curve" smooth="yes"/>
      <point x="314" y="100"/>
      <point x="355" y="107"/>
      <point x="355" y="117" type="curve" smooth="yes"/>
      <point x="355" y="132"/>
      <point x="306" y="185"/>
    </contour>
  </outline>
</glyph>
<glyph name="alefMaksura-ar" format="2">
  <advance width="690"/>
  <unicode hex="0649"/>
  <outline>
    <contour>
      <point x="610" y="283" type="curve" smooth="yes"/>
      <point x="634" y="283"/>
      <point x="652" y="357"/>
      <point x="652" y="382" type="curve" smooth="yes"/>
      <point x="652" y="403"/>
      <point x="638" y="420"/>
      <point x="605" y="420" type="curve" smooth="yes"/>
      <point x="536" y="420"/>
      <point x="352" y="261"/>
      <point x="352" y="120" type="curve" smooth="yes"/>
      <point x="352" y="32"/>
      <point x="584" y="30"/>
      <point x="584" y="0" type="curve" smooth="yes"/>
      <point x="584" y="-49"/>
      <point x="400" y="-137"/>
      <point x="274" y="-137" type="curve" smooth="yes"/>
      <point x="186" y="-137"/>
      <point x="93" y="-143"/>
      <point x="93" y="-35" type="curve" smooth="yes"/>
      <point x="93" y="-5"/>
      <point x="107" y="52"/>
      <point x="107" y="77" type="curve" smooth="yes"/>
      <point x="107" y="90"/>
      <point x="99" y="100"/>
      <point x="86" y="100" type="curve" smooth="yes"/>
      <point x="70" y="100"/>
      <point x="30" y="4"/>
      <point x="30" y="-94" type="curve" smooth="yes"/>
      <point x="30" y="-209"/>
      <point x="122" y="-254"/>
      <point x="239" y="-254" type="curve" smooth="yes"/>
      <point x="427" y="-254"/>
      <point x="660" y="-81"/>
      <point x="660" y="55" type="curve" smooth="yes"/>
      <point x="660" y="142"/>
      <point x="416" y="116"/>
      <point x="416" y="195" type="curve" smooth="yes"/>
      <point x="416" y="229"/>
      <point x="518" y="312"/>
      <point x="555" y="312" type="curve" smooth="yes"/>
      <point x="576" y="312"/>
      <point x="588" y="283"/>
    </contour>
  </outline>
</glyph>
<glyph name="madda-ar" format="2">
  <advance width="387"/>
  <unicode hex="0653"/>
  <outline>
    <contour>
      <point x="203" y="700" type="curve" smooth="yes"/>
      <point x="270" y="700"/>
      <point x="316" y="728"/>
      <point x="316" y="751" type="curve" smooth="yes"/>
      <point x="316" y="758"/>
      <point x="311" y="763"/>
      <point x="304" y="763" type="curve" smooth="yes"/>
      <point x="291" y="763"/>
      <point x="271" y="754"/>
      <point x="241" y="754" type="curve" smooth="yes"/>
      <point x="170" y="754"/>
      <point x="144" y="780"/>
      <point x="135" y="780" type="curve" smooth="yes"/>
      <point x="123" y="780"/>
      <point x="93" y="719"/>
      <point x="93" y="710" type="curve" smooth="yes"/>
      <point x="93" y="705"/>
      <point x="101" y="699"/>
      <point x="107" y="699" type="curve" smooth="yes"/>
      <point x="118" y="700"/>
      <point x="122" y="719"/>
      <point x="128" y="719" type="curve" smooth="yes"/>
      <point x="136" y="719"/>
      <point x="162" y="700"/>
    </contour>
  </outline>
</glyph>
<glyph name="hamzaabove-ar" format="2">
  <advance width="200"/>
  <unicode hex="0654"/>
  <outline>
    <contour>
      <point x="22" y="731" type="curve" smooth="yes"/>
      <point x="34" y="731"/>
      <point x="175" y="771"/>
      <point x="183" y="779" type="curve" smooth="yes"/>
      <point x="189" y="785"/>
      <point x="193" y="822"/>
      <point x="183" y="822" type="curve" smooth="yes"/>
      <point x="173" y="822"/>
      <point x="153" y="812"/>
      <point x="140" y="812" type="curve" smooth="yes"/>
      <point x="127" y="812"/>
      <point x="77" y="831"/>
      <point x="77" y="846" type="curve" smooth="yes"/>
      <point x="77" y="857"/>
      <point x="85" y="866"/>
      <point x="98" y="866" type="curve" smooth="yes"/>
      <point x="108" y="866"/>
      <point x="124" y="842"/>
      <point x="137" y="842" type="curve" smooth="yes"/>
      <point x="148" y="842"/>
      <point x="172" y="865"/>
      <point x="172" y="874" type="curve" smooth="yes"/>
      <point x="172" y="890"/>
      <point x="150" y="912"/>
      <point x="123" y="912" type="curve" smooth="yes"/>
      <point x="94" y="912"/>
      <point x="28" y="857"/>
      <point x="28" y="827" type="curve" smooth="yes"/>
      <point x="28" y="801"/>
      <point x="48" y="795"/>
      <point x="48" y="788" type="curve" smooth="yes"/>
      <point x="48" y="781"/>
      <point x="28" y="771"/>
      <point x="24" y="765" type="curve" smooth="yes"/>
      <point x="21" y="761"/>
      <point x="15" y="746"/>
      <point x="15" y="737" type="curve" smooth="yes"/>
      <point x="15" y="733"/>
      <point x="19" y="731"/>
    </contour>
  </outline>
</glyph>
<glyph name="zero-ar" format="2">
  <advance width="246"/>
  <unicode hex="0660"/>
  <outline>
    <contour>
      <point x="123" y="211" type="curve" smooth="yes"/>
      <point x="148" y="211"/>
      <point x="226" y="290"/>
      <point x="226" y="314" type="curve" smooth="yes"/>
      <point x="226" y="339"/>
      <point x="148" y="420"/>
      <point x="123" y="420" type="curve" smooth="yes"/>
      <point x="98" y="420"/>
      <point x="20" y="339"/>
      <point x="20" y="314" type="curve" smooth="yes"/>
      <point x="20" y="290"/>
      <point x="98" y="211"/>
    </contour>
  </outline>
</glyph>
<glyph name="one-ar" format="2">
  <advance width="230"/>
  <unicode hex="0661"/>
  <outline>
    <contour>
      <point x="180" y="0" type="curve" smooth="yes"/>
      <point x="202" y="0"/>
      <point x="210" y="100"/>
      <point x="210" y="148" type="curve" smooth="yes"/>
      <point x="210" y="384"/>
      <point x="100" y="640"/>
      <point x="56" y="640" type="curve" smooth="yes"/>
      <point x="31" y="640"/>
      <point x="20" y="569"/>
      <point x="20" y="534" type="curve" smooth="yes"/>
      <point x="20" y="493"/>
      <point x="119" y="421"/>
      <point x="147" y="211" type="curve" smooth="yes"/>
      <point x="160" y="115"/>
      <point x="165" y="56"/>
      <point x="165" y="16" type="curve" smooth="yes"/>
      <point x="165" y="5"/>
      <point x="170" y="0"/>
    </contour>
  </outline>
</glyph>
<glyph name="two-ar" format="2">
  <advance width="417"/>
  <unicode hex="0662"/>
  <outline>
    <contour>
      <point x="180" y="0" type="curve" smooth="yes"/>
      <point x="201" y="0"/>
      <point x="210" y="46"/>
      <point x="210" y="148" type="curve" smooth="yes"/>
      <point x="210" y="229"/>
      <point x="188" y="346"/>
      <point x="173" y="402" type="curve" smooth="yes"/>
      <point x="170" y="413"/>
      <point x="174" y="420"/>
      <point x="185" y="420" type="curve" smooth="yes"/>
      <point x="302" y="420"/>
      <point x="397" y="466"/>
      <point x="397" y="614" type="curve" smooth="yes"/>
      <point x="397" y="632"/>
      <point x="389" y="640"/>
      <point x="382" y="640" type="curve" smooth="yes"/>
      <point x="374" y="640"/>
      <point x="370" y="632"/>
      <point x="366" y="616" type="curve" smooth="yes"/>
      <point x="359" y="588"/>
      <point x="314" y="517"/>
      <point x="227" y="517" type="curve" smooth="yes"/>
      <point x="112" y="517"/>
      <point x="107" y="640"/>
      <point x="70" y="640" type="curve" smooth="yes"/>
      <point x="44" y="640"/>
      <point x="20" y="542"/>
      <point x="20" y="512" type="curve" smooth="yes"/>
      <point x="20" y="454"/>
      <point x="113" y="396"/>
      <point x="148" y="211" type="curve" smooth="yes"/>
      <point x="163" y="132"/>
      <point x="165" y="33"/>
      <point x="165" y="21" type="curve" smooth="yes"/>
      <point x="165" y="5"/>
      <point x="173" y="0"/>
    </contour>
  </outline>
</glyph>
<glyph name="three-ar" format="2">
  <advance width="499"/>
  <unicode hex="0663"/>
  <outline>
    <contour>
      <point x="180" y="0" type="curve" smooth="yes"/>
      <point x="198" y="0"/>
      <point x="210" y="59"/>
      <point x="210" y="148" type="curve" smooth="yes"/>
      <point x="210" y="225"/>
      <point x="198" y="304"/>
      <point x="177" y="373" type="curve" smooth="yes"/>
      <point x="173" y="385"/>
      <point x="175" y="392"/>
      <point x="183" y="392" type="curve" smooth="yes"/>
      <point x="283" y="394"/>
      <point x="296" y="446"/>
      <point x="306" y="446" type="curve" smooth="yes"/>
      <point x="314" y="446"/>
      <point x="339" y="420"/>
      <point x="378" y="420" type="curve" smooth="yes"/>
      <point x="445" y="420"/>
      <point x="489" y="496"/>
      <point x="489" y="615" type="curve" smooth="yes"/>
      <point x="489" y="628"/>
      <point x="486" y="640"/>
      <point x="474" y="640" type="curve" smooth="yes"/>
      <point x="462" y="640"/>
      <point x="457" y="627"/>
      <point x="454" y="610" type="curve" smooth="yes"/>
      <point x="445" y="558"/>
      <point x="424" y="525"/>
      <point x="381" y="525" type="curve" smooth="yes"/>
      <point x="350" y="525"/>
      <point x="334" y="543"/>
      <point x="337" y="558" type="curve" smooth="yes"/>
      <point x="340" y="575"/>
      <point x="343" y="595"/>
      <point x="343" y="614" type="curve" smooth="yes"/>
      <point x="343" y="633"/>
      <point x="338" y="640"/>
      <point x="328" y="640" type="curve" smooth="yes"/>
      <point x="319" y="640"/>
      <point x="313" y="634"/>
      <point x="311" y="620" type="curve" smooth="yes"/>
      <point x="306" y="583"/>
      <point x="285" y="518"/>
      <point x="212" y="518" type="curve" smooth="yes"/>
      <point x="113" y="518"/>
      <point x="89" y="640"/>
      <point x="70" y="640" type="curve" smooth="yes"/>
      <point x="39" y="640"/>
      <point x="20" y="541"/>
      <point x="20" y="512" type="curve" smooth="yes"/>
      <point x="20" y="453"/>
      <point x="112" y="401"/>
      <point x="148" y="211" type="curve" smooth="yes"/>
      <point x="162" y="137"/>
      <point x="165" y="42"/>
      <point x="165" y="21" type="curve" smooth="yes"/>
      <point x="165" y="8"/>
      <point x="171" y="0"/>
    </contour>
  </outline>
</glyph>
<glyph name="four-ar" format="2">
  <advance width="331"/>
  <unicode hex="0664"/>
  <outline>
    <contour>
      <point x="264" y="0" type="curve" smooth="yes"/>
      <point x="143" y="0"/>
      <point x="29" y="35"/>
      <point x="29" y="100" type="curve" smooth="yes"/>
      <point x="29" y="240"/>
      <point x="143" y="284"/>
      <point x="143" y="310" type="curve" smooth="yes"/>
      <point x="143" y="332"/>
      <point x="20" y="348"/>
      <point x="20" y="403" type="curve" smooth="yes"/>
      <point x="20" y="468"/>
      <point x="126" y="640"/>
      <point x="176" y="640" type="curve" smooth="yes"/>
      <point x="193" y="640"/>
      <point x="199" y="632"/>
      <point x="199" y="616" type="curve" smooth="yes"/>
      <point x="199" y="560"/>
      <point x="94" y="523"/>
      <point x="94" y="480" type="curve" smooth="yes"/>
      <point x="94" y="442"/>
      <point x="248" y="437"/>
      <point x="248" y="382" type="curve" smooth="yes"/>
      <point x="248" y="293"/>
      <point x="99" y="238"/>
      <point x="99" y="188" type="curve" smooth="yes"/>
      <point x="99" y="134"/>
      <point x="214" y="110"/>
      <point x="289" y="100" type="curve" smooth="yes"/>
      <point x="304" y="98"/>
      <point x="311" y="91"/>
      <point x="311" y="78" type="curve" smooth="yes"/>
      <point x="311" y="53"/>
      <point x="287" y="0"/>
    </contour>
  </outline>
</glyph>
<glyph name="five-ar" format="2">
  <advance width="393"/>
  <unicode hex="0665"/>
  <outline>
    <contour>
      <point x="170" y="100" type="curve" smooth="yes"/>
      <point x="70" y="100"/>
      <point x="20" y="136"/>
      <point x="20" y="211" type="curve" smooth="yes"/>
      <point x="20" y="313"/>
      <point x="98" y="529"/>
      <point x="197" y="529" type="curve" smooth="yes"/>
      <point x="268" y="529"/>
      <point x="373" y="432"/>
      <point x="373" y="325" type="curve" smooth="yes"/>
      <point x="373" y="200"/>
      <point x="345" y="100"/>
    </contour>
    <contour>
      <point x="183" y="211" type="curve" smooth="yes"/>
      <point x="245" y="211"/>
      <point x="314" y="245"/>
      <point x="314" y="282" type="curve" smooth="yes"/>
      <point x="314" y="325"/>
      <point x="240" y="394"/>
      <point x="153" y="394" type="curve" smooth="yes"/>
      <point x="110" y="394"/>
      <point x="88" y="355"/>
      <point x="88" y="298" type="curve" smooth="yes"/>
      <point x="88" y="242"/>
      <point x="119" y="211"/>
    </contour>
  </outline>
</glyph>
<glyph name="six-ar" format="2">
  <advance width="446"/>
  <unicode hex="0666"/>
  <outline>
    <contour>
      <point x="394" y="0" type="curve" smooth="yes"/>
      <point x="409" y="0"/>
      <point x="436" y="80"/>
      <point x="436" y="127" type="curve" smooth="yes"/>
      <point x="436" y="172"/>
      <point x="324" y="295"/>
      <point x="324" y="488" type="curve" smooth="yes"/>
      <point x="324" y="511"/>
      <point x="329" y="544"/>
      <point x="329" y="563" type="curve" smooth="yes"/>
      <point x="329" y="583"/>
      <point x="319" y="591"/>
      <point x="304" y="591" type="curve" smooth="yes"/>
      <point x="282" y="591"/>
      <point x="256" y="575"/>
      <point x="191" y="575" type="curve" smooth="yes"/>
      <point x="101" y="575"/>
      <point x="64" y="640"/>
      <point x="48" y="640" type="curve" smooth="yes"/>
      <point x="35" y="640"/>
      <point x="20" y="607"/>
      <point x="20" y="537" type="curve" smooth="yes"/>
      <point x="20" y="493"/>
      <point x="74" y="453"/>
      <point x="146" y="453" type="curve" smooth="yes"/>
      <point x="218" y="453"/>
      <point x="243" y="473"/>
      <point x="257" y="473" type="curve" smooth="yes"/>
      <point x="267" y="473"/>
      <point x="272" y="467"/>
      <point x="272" y="456" type="curve" smooth="yes"/>
      <point x="272" y="345"/>
      <point x="331" y="0"/>
    </contour>
  </outline>
</glyph>
<glyph name="seven-ar" format="2">
  <advance width="490"/>
  <unicode hex="0667"/>
  <outline>
    <contour>
      <point x="246" y="0" type="curve" smooth="yes"/>
      <point x="262" y="0"/>
      <point x="267" y="10"/>
      <point x="272" y="31" type="curve" smooth="yes"/>
      <point x="315" y="232"/>
      <point x="372" y="342"/>
      <point x="417" y="421" type="curve" smooth="yes"/>
      <point x="439" y="459"/>
      <point x="470" y="486"/>
      <point x="470" y="525" type="curve" smooth="yes"/>
      <point x="470" y="630"/>
      <point x="463" y="640"/>
      <point x="450" y="640" type="curve" smooth="yes"/>
      <point x="427" y="640"/>
      <point x="318" y="402"/>
      <point x="278" y="242" type="curve" smooth="yes"/>
      <point x="270" y="211"/>
      <point x="264" y="195"/>
      <point x="259" y="195" type="curve" smooth="yes"/>
      <point x="252" y="195"/>
      <point x="245" y="211"/>
      <point x="238" y="238" type="curve" smooth="yes"/>
      <point x="201" y="380"/>
      <point x="70" y="640"/>
      <point x="50" y="640" type="curve" smooth="yes"/>
      <point x="26" y="640"/>
      <point x="20" y="607"/>
      <point x="20" y="529" type="curve" smooth="yes"/>
      <point x="20" y="490"/>
      <point x="42" y="473"/>
      <point x="50" y="459" type="curve" smooth="yes"/>
      <point x="116" y="343"/>
      <point x="176" y="229"/>
      <point x="221" y="31" type="curve" smooth="yes"/>
      <point x="226" y="10"/>
      <point x="232" y="0"/>
    </contour>
  </outline>
</glyph>
<glyph name="eight-ar" format="2">
  <advance width="616"/>
  <unicode hex="0668"/>
  <outline>
    <contour>
      <point x="287" y="640" type="curve" smooth="yes"/>
      <point x="272" y="640"/>
      <point x="268" y="629"/>
      <point x="263" y="608" type="curve" smooth="yes"/>
      <point x="199" y="364"/>
      <point x="130" y="252"/>
      <point x="94" y="186" type="curve" smooth="yes"/>
      <point x="73" y="147"/>
      <point x="65" y="126"/>
      <point x="65" y="100" type="curve" smooth="yes"/>
      <point x="65" y="47"/>
      <point x="65" y="15"/>
      <point x="84" y="15" type="curve" smooth="yes"/>
      <point x="114" y="15"/>
      <point x="206" y="252"/>
      <point x="258" y="421" type="curve" smooth="yes"/>
      <point x="264" y="441"/>
      <point x="267" y="446"/>
      <point x="273" y="446" type="curve" smooth="yes"/>
      <point x="280" y="446"/>
      <point x="285" y="441"/>
      <point x="292" y="421" type="curve" smooth="yes"/>
      <point x="339" y="286"/>
      <point x="455" y="0"/>
      <point x="487" y="0" type="curve" smooth="yes"/>
      <point x="510" y="0"/>
      <point x="514" y="59"/>
      <point x="514" y="119" type="curve" smooth="yes"/>
      <point x="514" y="154"/>
      <point x="481" y="192"/>
      <point x="472" y="211" type="curve" smooth="yes"/>
      <point x="424" y="313"/>
      <point x="354" y="421"/>
      <point x="312" y="608" type="curve" smooth="yes"/>
      <point x="307" y="628"/>
      <point x="301" y="640"/>
    </contour>
  </outline>
</glyph>
<glyph name="nine-ar" format="2">
  <advance width="403"/>
  <unicode hex="0669"/>
  <outline>
    <contour>
      <point x="342" y="0" type="curve" smooth="yes"/>
      <point x="363" y="0"/>
      <point x="383" y="62"/>
      <point x="383" y="124" type="curve" smooth="yes"/>
      <point x="383" y="158"/>
      <point x="363" y="175"/>
      <point x="349" y="211" type="curve" smooth="yes"/>
      <point x="321" y="284"/>
      <point x="315" y="353"/>
      <point x="303" y="473" type="curve" smooth="yes"/>
      <point x="293" y="577"/>
      <point x="255" y="640"/>
      <point x="187" y="640" type="curve" smooth="yes"/>
      <point x="119" y="640"/>
      <point x="20" y="500"/>
      <point x="20" y="421" type="curve" smooth="yes"/>
      <point x="20" y="334"/>
      <point x="64" y="305"/>
      <point x="152" y="305" type="curve" smooth="yes"/>
      <point x="209" y="305"/>
      <point x="227" y="325"/>
      <point x="244" y="325" type="curve" smooth="yes"/>
      <point x="255" y="325"/>
      <point x="260" y="303"/>
      <point x="262" y="288" type="curve" smooth="yes"/>
      <point x="270" y="211"/>
      <point x="305" y="0"/>
    </contour>
    <contour>
      <point x="170" y="403" type="curve" smooth="yes"/>
      <point x="120" y="403"/>
      <point x="82" y="412"/>
      <point x="82" y="448" type="curve" smooth="yes"/>
      <point x="82" y="480"/>
      <point x="108" y="519"/>
      <point x="143" y="519" type="curve" smooth="yes"/>
      <point x="191" y="519"/>
      <point x="232" y="457"/>
      <point x="232" y="433" type="curve" smooth="yes"/>
      <point x="232" y="407"/>
      <point x="223" y="403"/>
    </contour>
  </outline>
</glyph>
<glyph name="behDotless-ar" format="2">
  <advance width="867"/>
  <unicode hex="066E"/>
  <outline>
    <contour>
      <point x="307" y="0" type="curve" smooth="yes"/>
      <point x="105" y="0"/>
      <point x="20" y="58"/>
      <point x="20" y="177" type="curve" smooth="yes"/>
      <point x="20" y="247"/>
      <point x="60" y="312"/>
      <point x="73" y="312" type="curve" smooth="yes"/>
      <point x="85" y="312"/>
      <point x="90" y="302"/>
      <point x="90" y="292" type="curve" smooth="yes"/>
      <point x="90" y="282"/>
      <point x="80" y="250"/>
      <point x="80" y="217" type="curve" smooth="yes"/>
      <point x="80" y="123"/>
      <point x="134" y="100"/>
      <point x="453" y="100" type="curve" smooth="yes"/>
      <point x="529" y="100"/>
      <point x="792" y="100"/>
      <point x="792" y="145" type="curve" smooth="yes"/>
      <point x="792" y="167"/>
      <point x="740" y="201"/>
      <point x="740" y="227" type="curve" smooth="yes"/>
      <point x="740" y="258"/>
      <point x="765" y="325"/>
      <point x="782" y="325" type="curve" smooth="yes"/>
      <point x="805" y="325"/>
      <point x="847" y="243"/>
      <point x="847" y="194" type="curve" smooth="yes"/>
      <point x="847" y="-10"/>
      <point x="619" y="0"/>
    </contour>
  </outline>
</glyph>
<glyph name="fehDotless-ar" format="2">
  <advance width="654"/>
  <unicode hex="06A1"/>
  <anchor x="552" y="436" name="top"/>
  <outline>
    <contour>
      <point x="323" y="-7" type="curve" smooth="yes"/>
      <point x="36" y="-7"/>
      <point x="0" y="81"/>
      <point x="0" y="148" type="curve" smooth="yes"/>
      <point x="0" y="216"/>
      <point x="28" y="290"/>
      <point x="40" y="290" type="curve" smooth="yes"/>
      <point x="48" y="290"/>
      <point x="53" y="284"/>
      <point x="53" y="275" type="curve" smooth="yes"/>
      <point x="53" y="259"/>
      <point x="46" y="235"/>
      <point x="46" y="202" type="curve" smooth="yes"/>
      <point x="46" y="142"/>
      <point x="77" y="100"/>
      <point x="301" y="100" type="curve" smooth="yes"/>
      <point x="445" y="100"/>
      <point x="613" y="110"/>
      <point x="613" y="180" type="curve" smooth="yes"/>
      <point x="613" y="188"/>
      <point x="611" y="192"/>
      <point x="604" y="192" type="curve" smooth="yes"/>
      <point x="595" y="192"/>
      <point x="552" y="140"/>
      <point x="489" y="140" type="curve" smooth="yes"/>
      <point x="448" y="140"/>
      <point x="403" y="172"/>
      <point x="403" y="235" type="curve" smooth="yes"/>
      <point x="403" y="314"/>
      <point x="472" y="420"/>
      <point x="528" y="420" type="curve" smooth="yes"/>
      <point x="603" y="420"/>
      <point x="654" y="264"/>
      <point x="654" y="193" type="curve" smooth="yes"/>
      <point x="654" y="94"/>
      <point x="599" y="-7"/>
    </contour>
    <contour>
      <point x="522" y="234" type="curve" smooth="yes"/>
      <point x="543" y="234"/>
      <point x="589" y="246"/>
      <point x="589" y="258" type="curve" smooth="yes"/>
      <point x="589" y="272"/>
      <point x="542" y="325"/>
      <point x="518" y="325" type="curve" smooth="yes"/>
      <point x="488" y="325"/>
      <point x="440" y="287"/>
      <point x="440" y="267" type="curve" smooth="yes"/>
      <point x="440" y="249"/>
      <point x="486" y="234"/>
    </contour>
  </outline>
</glyph>
<glyph name="noonghunna-ar" format="2">
  <advance width="514"/>
  <unicode hex="06BA"/>
  <outline>
    <contour>
      <point x="235" y="-300" type="curve" smooth="yes"/>
      <point x="57" y="-300"/>
      <point x="0" y="-203"/>
      <point x="0" y="-88" type="curve" smooth="yes"/>
      <point x="0" y="6"/>
      <point x="40" y="100"/>
      <point x="62" y="100" type="curve" smooth="yes"/>
      <point x="72" y="100"/>
      <point x="77" y="87"/>
      <point x="77" y="76" type="curve" smooth="yes"/>
      <point x="77" y="58"/>
      <point x="61" y="9"/>
      <point x="61" y="-37" type="curve" smooth="yes"/>
      <point x="61" y="-101"/>
      <point x="120" y="-192"/>
      <point x="217" y="-192" type="curve" smooth="yes"/>
      <point x="377" y="-192"/>
      <point x="457" y="-87"/>
      <point x="457" y="-30" type="curve" smooth="yes"/>
      <point x="457" y="0"/>
      <point x="381" y="72"/>
      <point x="381" y="109" type="curve" smooth="yes"/>
      <point x="381" y="133"/>
      <point x="411" y="211"/>
      <point x="433" y="211" type="curve" smooth="yes"/>
      <point x="458" y="211"/>
      <point x="514" y="68"/>
      <point x="514" y="0" type="curve" smooth="yes"/>
      <point x="514" y="-139"/>
      <point x="411" y="-300"/>
    </contour>
  </outline>
</glyph>
<glyph name="noonghunna-ar.fina" format="2">
  <advance width="573"/>
  <unicode hex="FB9F"/>
  <outline>
    <contour>
      <point x="252" y="-300" type="curve" smooth="yes"/>
      <point x="71" y="-300"/>
      <point x="10" y="-203"/>
      <point x="10" y="-88" type="curve" smooth="yes"/>
      <point x="10" y="8"/>
      <point x="53" y="100"/>
      <point x="77" y="100" type="curve" smooth="yes"/>
      <point x="86" y="100"/>
      <point x="92" y="91"/>
      <point x="92" y="76" type="curve" smooth="yes"/>
      <point x="92" y="58"/>
      <point x="75" y="20"/>
      <point x="75" y="-38" type="curve" smooth="yes"/>
      <point x="75" y="-103"/>
      <point x="134" y="-192"/>
      <point x="234" y="-192" type="curve" smooth="yes"/>
      <point x="385" y="-192"/>
      <point x="471" y="-89"/>
      <point x="471" y="-32" type="curve" smooth="yes"/>
      <point x="471" y="0"/>
      <point x="394" y="74"/>
      <point x="394" y="108" type="curve" smooth="yes"/>
      <point x="394" y="132"/>
      <point x="425" y="211"/>
      <point x="448" y="211" type="curve" smooth="yes"/>
      <point x="495" y="211"/>
      <point x="475" y="100"/>
      <point x="573" y="100" type="curve"/>
      <point x="573" y="0" type="line"/>
      <point x="547" y="0" type="line"/>
      <point x="536" y="0"/>
      <point x="529" y="-4"/>
      <point x="528" y="-15" type="curve" smooth="yes"/>
      <point x="517" y="-146"/>
      <point x="425" y="-300"/>
    </contour>
  </outline>
</glyph>
<glyph name="alef-ar.fina" format="2">
  <advance width="218"/>
  <unicode hex="FE8E"/>
  <outline>
    <contour>
      <point x="218" y="100" type="line"/>
      <point x="115" y="100"/>
      <point x="113" y="450"/>
      <point x="113" y="673" type="curve" smooth="yes"/>
      <point x="113" y="689"/>
      <point x="106" y="700"/>
      <point x="93" y="700" type="curve" smooth="yes"/>
      <point x="72" y="700"/>
      <point x="40" y="606"/>
      <point x="40" y="581" type="curve" smooth="yes"/>
      <point x="40" y="529"/>
      <point x="56" y="256"/>
      <point x="81" y="135" type="curve" smooth="yes"/>
      <point x="102" y="34"/>
      <point x="137" y="0"/>
      <point x="218" y="0" type="curve"/>
      <point x="238" y="50" type="line"/>
    </contour>
  </outline>
</glyph>
<glyph name="hah-ar.fina" format="2">
  <advance width="504"/>
  <unicode hex="FEA2"/>
  <outline>
    <contour>
      <point x="408" y="165" type="curve" smooth="yes"/>
      <point x="391" y="165"/>
      <point x="373" y="142"/>
      <point x="373" y="94" type="curve" smooth="yes"/>
      <point x="373" y="24"/>
      <point x="417" y="0"/>
      <point x="504" y="0" type="curve"/>
      <point x="524" y="50" type="line"/>
      <point x="504" y="100" type="line"/>
      <point x="424" y="100"/>
      <point x="416" y="125"/>
      <point x="416" y="147" type="curve" smooth="yes"/>
      <point x="416" y="156"/>
      <point x="416" y="165"/>
    </contour>
    <contour>
      <point x="59" y="168" type="curve" smooth="yes"/>
      <point x="68" y="168"/>
      <point x="90" y="199"/>
      <point x="117" y="199" type="curve" smooth="yes"/>
      <point x="168" y="199"/>
      <point x="274" y="184"/>
      <point x="274" y="171" type="curve" smooth="yes"/>
      <point x="274" y="144"/>
      <point x="13" y="76"/>
      <point x="13" y="-167" type="curve" smooth="yes"/>
      <point x="13" y="-324"/>
      <point x="154" y="-450"/>
      <point x="297" y="-450" type="curve" smooth="yes"/>
      <point x="359" y="-450"/>
      <point x="578" y="-377"/>
      <point x="578" y="-344" type="curve" smooth="yes"/>
      <point x="578" y="-334"/>
      <point x="571" y="-330"/>
      <point x="560" y="-330" type="curve" smooth="yes"/>
      <point x="357" y="-330" type="line" smooth="yes"/>
      <point x="178" y="-330"/>
      <point x="87" y="-260"/>
      <point x="87" y="-133" type="curve" smooth="yes"/>
      <point x="87" y="8"/>
      <point x="251" y="140"/>
      <point x="397" y="140" type="curve" smooth="yes"/>
      <point x="432" y="140"/>
      <point x="447" y="132"/>
      <point x="470" y="132" type="curve" smooth="yes"/>
      <point x="489" y="132"/>
      <point x="524" y="199"/>
      <point x="524" y="219" type="curve" smooth="yes"/>
      <point x="524" y="226"/>
      <point x="515" y="233"/>
      <point x="504" y="233" type="curve" smooth="yes"/>
      <point x="373" y="233"/>
      <point x="235" y="294"/>
      <point x="154" y="294" type="curve" smooth="yes"/>
      <point x="117" y="294"/>
      <point x="47" y="204"/>
      <point x="47" y="181" type="curve" smooth="yes"/>
      <point x="47" y="171"/>
      <point x="51" y="168"/>
    </contour>
  </outline>
</glyph>
<glyph name="hah-ar.init" format="2">
  <advance width="547"/>
  <unicode hex="FEA3"/>
  <outline>
    <contour>
      <point x="0" y="0" type="curve"/>
      <point x="-20" y="50" type="line"/>
      <point x="0" y="100" type="line"/>
      <point x="121" y="100"/>
      <point x="258" y="154"/>
      <point x="258" y="171" type="curve" smooth="yes"/>
      <point x="258" y="175"/>
      <point x="256" y="177"/>
      <point x="251" y="179" type="curve" smooth="yes"/>
      <point x="225" y="189"/>
      <point x="125" y="199"/>
      <point x="100" y="199" type="curve" smooth="yes"/>
      <point x="73" y="199"/>
      <point x="53" y="169"/>
      <point x="41" y="169" type="curve" smooth="yes"/>
      <point x="35" y="169"/>
      <point x="30" y="172"/>
      <point x="30" y="181" type="curve" smooth="yes"/>
      <point x="30" y="199"/>
      <point x="96" y="294"/>
      <point x="138" y="294" type="curve" smooth="yes"/>
      <point x="183" y="294"/>
      <point x="400" y="233"/>
      <point x="514" y="233" type="curve" smooth="yes"/>
      <point x="524" y="233"/>
      <point x="537" y="229"/>
      <point x="537" y="218" type="curve" smooth="yes"/>
      <point x="537" y="204"/>
      <point x="506" y="132"/>
      <point x="480" y="132" type="curve" smooth="yes"/>
      <point x="455" y="132"/>
      <point x="429" y="140"/>
      <point x="381" y="140" type="curve" smooth="yes"/>
      <point x="293" y="140"/>
      <point x="223" y="0"/>
    </contour>
  </outline>
</glyph>
<glyph name="hah-ar.medi" format="2">
  <advance width="547"/>
  <unicode hex="FEA4"/>
  <outline>
    <contour>
      <point x="431" y="165" type="curve" smooth="yes"/>
      <point x="439" y="165"/>
      <point x="439" y="156"/>
      <point x="439" y="147" type="curve" smooth="yes"/>
      <point x="439" y="125"/>
      <point x="467" y="100"/>
      <point x="547" y="100" type="curve"/>
      <point x="567" y="50" type="line"/>
      <point x="547" y="0" type="line"/>
      <point x="460" y="0"/>
      <point x="396" y="24"/>
      <point x="396" y="94" type="curve" smooth="yes"/>
      <point x="396" y="142"/>
      <point x="414" y="165"/>
    </contour>
    <contour>
      <point x="0" y="0" type="curve"/>
      <point x="-20" y="50" type="line"/>
      <point x="0" y="100" type="line"/>
      <point x="121" y="100"/>
      <point x="298" y="154"/>
      <point x="298" y="171" type="curve" smooth="yes"/>
      <point x="298" y="175"/>
      <point x="296" y="177"/>
      <point x="291" y="179" type="curve" smooth="yes"/>
      <point x="265" y="189"/>
      <point x="165" y="199"/>
      <point x="140" y="199" type="curve" smooth="yes"/>
      <point x="113" y="199"/>
      <point x="93" y="169"/>
      <point x="81" y="169" type="curve" smooth="yes"/>
      <point x="75" y="169"/>
      <point x="70" y="172"/>
      <point x="70" y="181" type="curve" smooth="yes"/>
      <point x="70" y="199"/>
      <point x="136" y="294"/>
      <point x="178" y="294" type="curve" smooth="yes"/>
      <point x="223" y="294"/>
      <point x="423" y="233"/>
      <point x="527" y="233" type="curve" smooth="yes"/>
      <point x="537" y="233"/>
      <point x="550" y="229"/>
      <point x="550" y="218" type="curve" smooth="yes"/>
      <point x="550" y="204"/>
      <point x="519" y="132"/>
      <point x="493" y="132" type="curve" smooth="yes"/>
      <point x="468" y="132"/>
      <point x="449" y="140"/>
      <point x="421" y="140" type="curve" smooth="yes"/>
      <point x="333" y="140"/>
      <point x="223" y="0"/>
    </contour>
  </outline>
</glyph>
<glyph name="dal-ar.fina" format="2">
  <advance width="553"/>
  <unicode hex="FEAA"/>
  <outline>
    <contour>
      <point x="553" y="100" type="line"/>
      <point x="466" y="100"/>
      <point x="389" y="238"/>
      <point x="389" y="394" type="curve" smooth="yes"/>
      <point x="389" y="412"/>
      <point x="383" y="421"/>
      <point x="369" y="421" type="curve" smooth="yes"/>
      <point x="353" y="421"/>
      <point x="306" y="348"/>
      <point x="306" y="325" type="curve" smooth="yes"/>
      <point x="306" y="297"/>
      <point x="328" y="233"/>
      <point x="328" y="196" type="curve" smooth="yes"/>
      <point x="328" y="105"/>
      <point x="157" y="100"/>
      <point x="111" y="100" type="curve" smooth="yes"/>
      <point x="82" y="100"/>
      <point x="76" y="116"/>
      <point x="59" y="116" type="curve" smooth="yes"/>
      <point x="43" y="116"/>
      <point x="40" y="101"/>
      <point x="40" y="88" type="curve" smooth="yes"/>
      <point x="40" y="-1"/>
      <point x="59" y="0"/>
      <point x="91" y="0" type="curve" smooth="yes"/>
      <point x="366" y="0"/>
      <point x="346" y="172"/>
      <point x="366" y="172" type="curve" smooth="yes"/>
      <point x="381" y="172"/>
      <point x="411" y="0"/>
      <point x="553" y="0" type="curve"/>
      <point x="573" y="50" type="line"/>
    </contour>
  </outline>
</glyph>
<glyph name="reh-ar.fina" format="2">
  <advance width="456"/>
  <unicode hex="FEAE"/>
  <outline>
    <contour>
      <point x="206" y="-254" type="curve" smooth="yes"/>
      <point x="130" y="-254"/>
      <point x="20" y="-162"/>
      <point x="20" y="-136" type="curve" smooth="yes"/>
      <point x="20" y="-128"/>
      <point x="26" y="-125"/>
      <point x="35" y="-125" type="curve" smooth="yes"/>
      <point x="65" y="-125"/>
      <point x="116" y="-152"/>
      <point x="197" y="-152" type="curve" smooth="yes"/>
      <point x="246" y="-152"/>
      <point x="343" y="0"/>
      <point x="343" y="40" type="curve" smooth="yes"/>
      <point x="343" y="59"/>
      <point x="307" y="97"/>
      <point x="307" y="122" type="curve" smooth="yes"/>
      <point x="307" y="152"/>
      <point x="339" y="211"/>
      <point x="356" y="211" type="curve" smooth="yes"/>
      <point x="363" y="211"/>
      <point x="368" y="206"/>
      <point x="372" y="197" type="curve" smooth="yes"/>
      <point x="396" y="139"/>
      <point x="412" y="100"/>
      <point x="440" y="100" type="curve" smooth="yes"/>
      <point x="456" y="100" type="line"/>
      <point x="476" y="50" type="line"/>
      <point x="456" y="0" type="line"/>
      <point x="423" y="0" type="line"/>
      <point x="396" y="0"/>
      <point x="343" y="-254"/>
    </contour>
  </outline>
</glyph>
<glyph name="seen-ar.fina" format="2">
  <advance width="1147"/>
  <unicode hex="FEB2"/>
  <outline>
    <contour>
      <point x="10" y="-136" type="curve" smooth="yes"/>
      <point x="10" y="-60"/>
      <point x="67" y="64"/>
      <point x="80" y="64" type="curve" smooth="yes"/>
      <point x="88" y="64"/>
      <point x="94" y="51"/>
      <point x="94" y="44" type="curve" smooth="yes"/>
      <point x="94" y="25"/>
      <point x="85" y="-19"/>
      <point x="85" y="-54" type="curve" smooth="yes"/>
      <point x="85" y="-176"/>
      <point x="175" y="-230"/>
      <point x="326" y="-230" type="curve" smooth="yes"/>
      <point x="443" y="-230"/>
      <point x="576" y="-167"/>
      <point x="576" y="-118" type="curve" smooth="yes"/>
      <point x="576" y="-29"/>
      <point x="508" y="89"/>
      <point x="508" y="119" type="curve" smooth="yes"/>
      <point x="508" y="139"/>
      <point x="558" y="211"/>
      <point x="582" y="211" type="curve" smooth="yes"/>
      <point x="601" y="211"/>
      <point x="605" y="167"/>
      <point x="612" y="148" type="curve" smooth="yes"/>
      <point x="624" y="116"/>
      <point x="640" y="100"/>
      <point x="677" y="100" type="curve" smooth="yes"/>
      <point x="777" y="100"/>
      <point x="794" y="211"/>
      <point x="826" y="211" type="curve" smooth="yes"/>
      <point x="836" y="211"/>
      <point x="843" y="204"/>
      <point x="843" y="188" type="curve" smooth="yes"/>
      <point x="843" y="129"/>
      <point x="880" y="100"/>
      <point x="910" y="100" type="curve" smooth="yes"/>
      <point x="945" y="100"/>
      <point x="968" y="211"/>
      <point x="996" y="211" type="curve" smooth="yes"/>
      <point x="1010" y="211"/>
      <point x="1019" y="201"/>
      <point x="1019" y="182" type="curve" smooth="yes"/>
      <point x="1019" y="116"/>
      <point x="1077" y="100"/>
      <point x="1147" y="100" type="curve"/>
      <point x="1167" y="50" type="line"/>
      <point x="1147" y="0" type="line"/>
      <point x="996" y="0"/>
      <point x="971" y="66"/>
      <point x="956" y="66" type="curve" smooth="yes"/>
      <point x="941" y="66"/>
      <point x="927" y="0"/>
      <point x="866" y="0" type="curve" smooth="yes"/>
      <point x="800" y="0"/>
      <point x="791" y="66"/>
      <point x="776" y="66" type="curve" smooth="yes"/>
      <point x="760" y="66"/>
      <point x="738" y="0"/>
      <point x="658" y="0" type="curve" smooth="yes"/>
      <point x="647" y="0"/>
      <point x="643" y="-10"/>
      <point x="643" y="-19" type="curve" smooth="yes"/>
      <point x="643" y="-159"/>
      <point x="569" y="-330"/>
      <point x="272" y="-330" type="curve" smooth="yes"/>
      <point x="65" y="-330"/>
      <point x="10" y="-214"/>
    </contour>
  </outline>
</glyph>
<glyph name="seen-ar.init" format="2">
  <advance width="647"/>
  <unicode hex="FEB3"/>
  <outline>
    <contour>
      <point x="376" y="66" type="curve" smooth="yes"/>
      <point x="357" y="66"/>
      <point x="353" y="0"/>
      <point x="261" y="0" type="curve" smooth="yes"/>
      <point x="185" y="0"/>
      <point x="173" y="66"/>
      <point x="162" y="66" type="curve" smooth="yes"/>
      <point x="147" y="66"/>
      <point x="111" y="0"/>
      <point x="0" y="0" type="curve"/>
      <point x="-20" y="50" type="line"/>
      <point x="0" y="100" type="line"/>
      <point x="131" y="100"/>
      <point x="165" y="211"/>
      <point x="192" y="211" type="curve" smooth="yes"/>
      <point x="200" y="211"/>
      <point x="206" y="202"/>
      <point x="206" y="188" type="curve" smooth="yes"/>
      <point x="206" y="135"/>
      <point x="224" y="100"/>
      <point x="273" y="100" type="curve" smooth="yes"/>
      <point x="342" y="100"/>
      <point x="373" y="211"/>
      <point x="404" y="211" type="curve" smooth="yes"/>
      <point x="414" y="211"/>
      <point x="421" y="204"/>
      <point x="421" y="188" type="curve" smooth="yes"/>
      <point x="421" y="146"/>
      <point x="456" y="100"/>
      <point x="502" y="100" type="curve" smooth="yes"/>
      <point x="537" y="100"/>
      <point x="571" y="118"/>
      <point x="571" y="140" type="curve" smooth="yes"/>
      <point x="571" y="168"/>
      <point x="520" y="201"/>
      <point x="520" y="226" type="curve" smooth="yes"/>
      <point x="520" y="257"/>
      <point x="544" y="325"/>
      <point x="561" y="325" type="curve" smooth="yes"/>
      <point x="584" y="325"/>
      <point x="627" y="252"/>
      <point x="627" y="176" type="curve" smooth="yes"/>
      <point x="627" y="51"/>
      <point x="550" y="0"/>
      <point x="483" y="0" type="curve" smooth="yes"/>
      <point x="408" y="0"/>
      <point x="389" y="66"/>
    </contour>
  </outline>
</glyph>
<glyph name="seen-ar.medi" format="2">
  <advance width="670"/>
  <unicode hex="FEB4"/>
  <anchor x="317" y="-58" name="bottom"/>
  <anchor x="358" y="257" name="top"/>
  <outline>
    <contour>
      <point x="292" y="0"/>
      <point x="222" y="0" type="curve" smooth="yes"/>
      <point x="162" y="0"/>
      <point x="155" y="66"/>
      <point x="141" y="66" type="curve" smooth="yes"/>
      <point x="128" y="66"/>
      <point x="91" y="0"/>
      <point x="0" y="0" type="curve"/>
      <point x="-20" y="50" type="line"/>
      <point x="0" y="100" type="line"/>
      <point x="139" y="100"/>
      <point x="182" y="211"/>
      <point x="216" y="211" type="curve" smooth="yes"/>
      <point x="229" y="211"/>
      <point x="233" y="205"/>
      <point x="233" y="188" type="curve" smooth="yes"/>
      <point x="233" y="139"/>
      <point x="242" y="100"/>
      <point x="281" y="100" type="curve" smooth="yes"/>
      <point x="317" y="100"/>
      <point x="347" y="211"/>
      <point x="379" y="211" type="curve" smooth="yes"/>
      <point x="389" y="211"/>
      <point x="396" y="204"/>
      <point x="396" y="188" type="curve" smooth="yes"/>
      <point x="396" y="129"/>
      <point x="433" y="100"/>
      <point x="464" y="100" type="curve" smooth="yes"/>
      <point x="498" y="100"/>
      <point x="521" y="211"/>
      <point x="549" y="211" type="curve" smooth="yes"/>
      <point x="563" y="211"/>
      <point x="572" y="201"/>
      <point x="572" y="182" type="curve" smooth="yes"/>
      <point x="572" y="116"/>
      <point x="630" y="100"/>
      <point x="670" y="100" type="curve"/>
      <point x="690" y="50" type="line"/>
      <point x="670" y="0" type="line"/>
      <point x="549" y="0"/>
      <point x="524" y="66"/>
      <point x="509" y="66" type="curve" smooth="yes"/>
      <point x="494" y="66"/>
      <point x="480" y="0"/>
      <point x="419" y="0" type="curve" smooth="yes"/>
      <point x="356" y="0"/>
      <point x="338" y="66"/>
      <point x="323" y="66" type="curve" smooth="yes"/>
      <point x="309" y="66"/>
    </contour>
  </outline>
</glyph>
<glyph name="sad-ar.fina" format="2">
  <advance width="1162"/>
  <unicode hex="FEBA"/>
  <outline>
    <contour>
      <point x="743" y="112" type="curve" smooth="yes"/>
      <point x="743" y="104"/>
      <point x="747" y="100"/>
      <point x="759" y="100" type="curve" smooth="yes"/>
      <point x="1039" y="100" type="line" smooth="yes"/>
      <point x="1050" y="100"/>
      <point x="1058" y="103"/>
      <point x="1058" y="114" type="curve" smooth="yes"/>
      <point x="1058" y="129"/>
      <point x="982" y="219"/>
      <point x="939" y="219" type="curve" smooth="yes"/>
      <point x="874" y="219"/>
      <point x="743" y="128"/>
    </contour>
    <contour>
      <point x="10" y="-136" type="curve" smooth="yes"/>
      <point x="10" y="-4"/>
      <point x="66" y="100"/>
      <point x="86" y="100" type="curve" smooth="yes"/>
      <point x="100" y="100"/>
      <point x="107" y="89"/>
      <point x="107" y="74" type="curve" smooth="yes"/>
      <point x="107" y="54"/>
      <point x="85" y="2"/>
      <point x="85" y="-54" type="curve" smooth="yes"/>
      <point x="85" y="-176"/>
      <point x="185" y="-220"/>
      <point x="336" y="-220" type="curve" smooth="yes"/>
      <point x="453" y="-220"/>
      <point x="576" y="-167"/>
      <point x="576" y="-118" type="curve" smooth="yes"/>
      <point x="576" y="-29"/>
      <point x="507" y="89"/>
      <point x="507" y="119" type="curve" smooth="yes"/>
      <point x="507" y="139"/>
      <point x="557" y="211"/>
      <point x="581" y="211" type="curve" smooth="yes"/>
      <point x="600" y="211"/>
      <point x="604" y="167"/>
      <point x="611" y="148" type="curve" smooth="yes"/>
      <point x="623" y="116"/>
      <point x="631" y="100"/>
      <point x="654" y="100" type="curve" smooth="yes"/>
      <point x="668" y="100"/>
      <point x="677" y="100"/>
      <point x="685" y="111" type="curve" smooth="yes"/>
      <point x="759" y="212"/>
      <point x="873" y="325"/>
      <point x="985" y="325" type="curve" smooth="yes"/>
      <point x="1069" y="325"/>
      <point x="1115" y="199"/>
      <point x="1135" y="112" type="curve" smooth="yes"/>
      <point x="1137" y="103"/>
      <point x="1145" y="100"/>
      <point x="1162" y="100" type="curve"/>
      <point x="1182" y="50" type="line"/>
      <point x="1162" y="0" type="line"/>
      <point x="658" y="0" type="line" smooth="yes"/>
      <point x="647" y="0"/>
      <point x="643" y="-10"/>
      <point x="643" y="-19" type="curve" smooth="yes"/>
      <point x="643" y="-159"/>
      <point x="579" y="-320"/>
      <point x="282" y="-320" type="curve" smooth="yes"/>
      <point x="75" y="-320"/>
      <point x="10" y="-214"/>
    </contour>
  </outline>
</glyph>
<glyph name="sad-ar.init" format="2">
  <advance width="714"/>
  <unicode hex="FEBB"/>
  <outline>
    <contour>
      <point x="-20" y="50" type="line"/>
      <point x="0" y="100" type="line"/>
      <point x="84" y="100"/>
      <point x="121" y="211"/>
      <point x="152" y="211" type="curve" smooth="yes"/>
      <point x="167" y="211"/>
      <point x="170" y="201"/>
      <point x="170" y="178" type="curve" smooth="yes"/>
      <point x="170" y="133"/>
      <point x="195" y="100"/>
      <point x="236" y="100" type="curve" smooth="yes"/>
      <point x="245" y="100"/>
      <point x="251" y="102"/>
      <point x="257" y="111" type="curve" smooth="yes"/>
      <point x="328" y="213"/>
      <point x="445" y="325"/>
      <point x="557" y="325" type="curve" smooth="yes"/>
      <point x="606" y="325"/>
      <point x="714" y="224"/>
      <point x="714" y="141" type="curve" smooth="yes"/>
      <point x="714" y="95"/>
      <point x="654" y="0"/>
      <point x="574" y="0" type="curve" smooth="yes"/>
      <point x="220" y="0" type="line"/>
      <point x="127" y="0"/>
      <point x="131" y="70"/>
      <point x="117" y="70" type="curve" smooth="yes"/>
      <point x="103" y="70"/>
      <point x="70" y="0"/>
      <point x="0" y="0" type="curve"/>
    </contour>
    <contour>
      <point x="315" y="112" type="curve" smooth="yes"/>
      <point x="315" y="104"/>
      <point x="319" y="100"/>
      <point x="331" y="100" type="curve" smooth="yes"/>
      <point x="621" y="100" type="line" smooth="yes"/>
      <point x="632" y="100"/>
      <point x="640" y="103"/>
      <point x="640" y="114" type="curve" smooth="yes"/>
      <point x="640" y="129"/>
      <point x="554" y="219"/>
      <point x="511" y="219" type="curve" smooth="yes"/>
      <point x="446" y="219"/>
      <point x="315" y="128"/>
    </contour>
  </outline>
</glyph>
<glyph name="sad-ar.medi" format="2">
  <advance width="734"/>
  <unicode hex="FEBC"/>
  <outline>
    <contour>
      <point x="-20" y="50" type="line"/>
      <point x="0" y="100" type="line"/>
      <point x="84" y="100"/>
      <point x="121" y="211"/>
      <point x="152" y="211" type="curve" smooth="yes"/>
      <point x="167" y="211"/>
      <point x="170" y="201"/>
      <point x="170" y="178" type="curve" smooth="yes"/>
      <point x="170" y="133"/>
      <point x="195" y="100"/>
      <point x="236" y="100" type="curve" smooth="yes"/>
      <point x="245" y="100"/>
      <point x="251" y="102"/>
      <point x="257" y="111" type="curve" smooth="yes"/>
      <point x="328" y="213"/>
      <point x="445" y="325"/>
      <point x="557" y="325" type="curve" smooth="yes"/>
      <point x="641" y="325"/>
      <point x="687" y="199"/>
      <point x="707" y="112" type="curve" smooth="yes"/>
      <point x="709" y="103"/>
      <point x="717" y="100"/>
      <point x="734" y="100" type="curve"/>
      <point x="754" y="50" type="line"/>
      <point x="734" y="0" type="line"/>
      <point x="220" y="0" type="line"/>
      <point x="127" y="0"/>
      <point x="131" y="70"/>
      <point x="117" y="70" type="curve" smooth="yes"/>
      <point x="103" y="70"/>
      <point x="70" y="0"/>
      <point x="0" y="0" type="curve"/>
    </contour>
    <contour>
      <point x="315" y="112" type="curve" smooth="yes"/>
      <point x="315" y="104"/>
      <point x="319" y="100"/>
      <point x="331" y="100" type="curve" smooth="yes"/>
      <point x="611" y="100" type="line" smooth="yes"/>
      <point x="622" y="100"/>
      <point x="630" y="103"/>
      <point x="630" y="114" type="curve" smooth="yes"/>
      <point x="630" y="129"/>
      <point x="554" y="219"/>
      <point x="511" y="219" type="curve" smooth="yes"/>
      <point x="446" y="219"/>
      <point x="315" y="128"/>
    </contour>
  </outline>
</glyph>
<glyph name="tah-ar.fina" format="2">
  <advance width="836"/>
  <unicode hex="FEC2"/>
  <outline>
    <contour>
      <point x="431" y="99" type="curve" smooth="yes"/>
      <point x="711" y="100" type="line" smooth="yes"/>
      <point x="728" y="100"/>
      <point x="735" y="103"/>
      <point x="735" y="113" type="curve" smooth="yes"/>
      <point x="735" y="131"/>
      <point x="646" y="219"/>
      <point x="606" y="219" type="curve" smooth="yes"/>
      <point x="549" y="219"/>
      <point x="410" y="132"/>
      <point x="410" y="111" type="curve" smooth="yes"/>
      <point x="410" y="102"/>
      <point x="420" y="99"/>
    </contour>
    <contour>
      <point x="0" y="105" type="curve" smooth="yes"/>
      <point x="0" y="126"/>
      <point x="6" y="133"/>
      <point x="33" y="133" type="curve" smooth="yes"/>
      <point x="69" y="133"/>
      <point x="149" y="100"/>
      <point x="270" y="100" type="curve" smooth="yes"/>
      <point x="291" y="100"/>
      <point x="300" y="112"/>
      <point x="300" y="154" type="curve" smooth="yes"/>
      <point x="300" y="307"/>
      <point x="273" y="458"/>
      <point x="257" y="556" type="curve" smooth="yes"/>
      <point x="252" y="587"/>
      <point x="236" y="600"/>
      <point x="236" y="630" type="curve" smooth="yes"/>
      <point x="236" y="652"/>
      <point x="267" y="700"/>
      <point x="284" y="700" type="curve" smooth="yes"/>
      <point x="300" y="700"/>
      <point x="304" y="667"/>
      <point x="321" y="645" type="curve" smooth="yes"/>
      <point x="337" y="623"/>
      <point x="358" y="609"/>
      <point x="358" y="599" type="curve" smooth="yes"/>
      <point x="358" y="584"/>
      <point x="340" y="556"/>
      <point x="340" y="542" type="curve" smooth="yes"/>
      <point x="340" y="543"/>
      <point x="375" y="150"/>
      <point x="381" y="150" type="curve" smooth="yes"/>
      <point x="393" y="150"/>
      <point x="516" y="325"/>
      <point x="651" y="325" type="curve" smooth="yes"/>
      <point x="717" y="325"/>
      <point x="786" y="181"/>
      <point x="806" y="132" type="curve" smooth="yes"/>
      <point x="812" y="117"/>
      <point x="822" y="100"/>
      <point x="836" y="100" type="curve"/>
      <point x="856" y="50" type="line"/>
      <point x="836" y="0" type="line"/>
      <point x="221" y="0" type="line" smooth="yes"/>
      <point x="125" y="0"/>
      <point x="0" y="82"/>
    </contour>
  </outline>
</glyph>
<glyph name="tah-ar.init" format="2">
  <advance width="573"/>
  <unicode hex="FEC3"/>
  <outline>
    <contour>
      <point x="0" y="0" type="line"/>
      <point x="-20" y="50" type="line"/>
      <point x="0" y="100" type="line"/>
      <point x="42" y="100"/>
      <point x="64" y="112"/>
      <point x="64" y="154" type="curve" smooth="yes"/>
      <point x="64" y="307"/>
      <point x="37" y="458"/>
      <point x="21" y="556" type="curve" smooth="yes"/>
      <point x="16" y="587"/>
      <point x="0" y="600"/>
      <point x="0" y="630" type="curve" smooth="yes"/>
      <point x="0" y="652"/>
      <point x="31" y="700"/>
      <point x="48" y="700" type="curve" smooth="yes"/>
      <point x="64" y="700"/>
      <point x="68" y="667"/>
      <point x="85" y="645" type="curve" smooth="yes"/>
      <point x="101" y="623"/>
      <point x="122" y="609"/>
      <point x="122" y="599" type="curve" smooth="yes"/>
      <point x="122" y="584"/>
      <point x="104" y="556"/>
      <point x="104" y="542" type="curve" smooth="yes"/>
      <point x="104" y="543"/>
      <point x="139" y="150"/>
      <point x="145" y="150" type="curve" smooth="yes"/>
      <point x="157" y="150"/>
      <point x="281" y="325"/>
      <point x="416" y="325" type="curve" smooth="yes"/>
      <point x="482" y="325"/>
      <point x="573" y="201"/>
      <point x="573" y="148" type="curve" smooth="yes"/>
      <point x="573" y="23"/>
      <point x="429" y="0"/>
      <point x="389" y="0" type="curve" smooth="yes"/>
    </contour>
    <contour>
      <point x="195" y="99" type="curve" smooth="yes"/>
      <point x="475" y="100" type="line" smooth="yes"/>
      <point x="492" y="100"/>
      <point x="499" y="103"/>
      <point x="499" y="113" type="curve" smooth="yes"/>
      <point x="499" y="131"/>
      <point x="410" y="219"/>
      <point x="370" y="219" type="curve" smooth="yes"/>
      <point x="313" y="219"/>
      <point x="174" y="132"/>
      <point x="174" y="111" type="curve" smooth="yes"/>
      <point x="174" y="102"/>
      <point x="184" y="99"/>
    </contour>
  </outline>
</glyph>
<glyph name="tah-ar.medi" format="2">
  <advance width="600"/>
  <unicode hex="FEC4"/>
  <outline>
    <contour>
      <point x="0" y="0" type="line"/>
      <point x="-20" y="50" type="line"/>
      <point x="0" y="100" type="line"/>
      <point x="42" y="100"/>
      <point x="64" y="112"/>
      <point x="64" y="154" type="curve" smooth="yes"/>
      <point x="64" y="307"/>
      <point x="37" y="458"/>
      <point x="21" y="556" type="curve" smooth="yes"/>
      <point x="16" y="587"/>
      <point x="0" y="600"/>
      <point x="0" y="630" type="curve" smooth="yes"/>
      <point x="0" y="652"/>
      <point x="31" y="700"/>
      <point x="48" y="700" type="curve" smooth="yes"/>
      <point x="64" y="700"/>
      <point x="68" y="667"/>
      <point x="85" y="645" type="curve" smooth="yes"/>
      <point x="101" y="623"/>
      <point x="122" y="609"/>
      <point x="122" y="599" type="curve" smooth="yes"/>
      <point x="122" y="584"/>
      <point x="104" y="556"/>
      <point x="104" y="542" type="curve" smooth="yes"/>
      <point x="104" y="543"/>
      <point x="139" y="150"/>
      <point x="145" y="150" type="curve" smooth="yes"/>
      <point x="157" y="150"/>
      <point x="280" y="325"/>
      <point x="415" y="325" type="curve" smooth="yes"/>
      <point x="481" y="325"/>
      <point x="550" y="181"/>
      <point x="570" y="132" type="curve" smooth="yes"/>
      <point x="576" y="117"/>
      <point x="586" y="100"/>
      <point x="600" y="100" type="curve"/>
      <point x="620" y="50" type="line"/>
      <point x="600" y="0" type="line"/>
    </contour>
    <contour>
      <point x="195" y="99" type="curve" smooth="yes"/>
      <point x="475" y="100" type="line" smooth="yes"/>
      <point x="492" y="100"/>
      <point x="499" y="103"/>
      <point x="499" y="113" type="curve" smooth="yes"/>
      <point x="499" y="131"/>
      <point x="410" y="219"/>
      <point x="370" y="219" type="curve" smooth="yes"/>
      <point x="313" y="219"/>
      <point x="174" y="132"/>
      <point x="174" y="111" type="curve" smooth="yes"/>
      <point x="174" y="102"/>
      <point x="184" y="99"/>
    </contour>
  </outline>
</glyph>
<glyph name="ain-ar.fina" format="2">
  <advance width="484"/>
  <unicode hex="FECA"/>
  <outline>
    <contour>
      <point x="309" y="-330" type="curve" smooth="yes"/>
      <point x="132" y="-330"/>
      <point x="35" y="-264"/>
      <point x="35" y="-160" type="curve" smooth="yes"/>
      <point x="35" y="-15"/>
      <point x="195" y="97"/>
      <point x="295" y="97" type="curve" smooth="yes"/>
      <point x="312" y="97"/>
      <point x="413" y="0"/>
      <point x="484" y="0" type="curve"/>
      <point x="484" y="100" type="line"/>
      <point x="439" y="100"/>
      <point x="365" y="128"/>
      <point x="365" y="161" type="curve" smooth="yes"/>
      <point x="365" y="177"/>
      <point x="417" y="216"/>
      <point x="417" y="267" type="curve" smooth="yes"/>
      <point x="417" y="311"/>
      <point x="335" y="325"/>
      <point x="263" y="325" type="curve" smooth="yes"/>
      <point x="182" y="325"/>
      <point x="95" y="270"/>
      <point x="95" y="221" type="curve" smooth="yes"/>
      <point x="95" y="215"/>
      <point x="101" y="212"/>
      <point x="105" y="212" type="curve" smooth="yes"/>
      <point x="146" y="212"/>
      <point x="226" y="171"/>
      <point x="226" y="156" type="curve" smooth="yes"/>
      <point x="226" y="122"/>
      <point x="-40" y="41"/>
      <point x="-40" y="-204" type="curve" smooth="yes"/>
      <point x="-40" y="-368"/>
      <point x="101" y="-450"/>
      <point x="234" y="-450" type="curve" smooth="yes"/>
      <point x="322" y="-450"/>
      <point x="521" y="-360"/>
      <point x="521" y="-331" type="curve" smooth="yes"/>
      <point x="521" y="-321"/>
      <point x="512" y="-318"/>
      <point x="500" y="-318" type="curve" smooth="yes"/>
      <point x="463" y="-318"/>
      <point x="434" y="-330"/>
    </contour>
  </outline>
</glyph>
<glyph name="ain-ar.init" format="2">
  <advance width="389"/>
  <unicode hex="FECB"/>
  <outline>
    <contour>
      <point x="0" y="0" type="line"/>
      <point x="83" y="0"/>
      <point x="330" y="66"/>
      <point x="364" y="100" type="curve" smooth="yes"/>
      <point x="374" y="110"/>
      <point x="412" y="166"/>
      <point x="412" y="180" type="curve" smooth="yes"/>
      <point x="412" y="192"/>
      <point x="405" y="198"/>
      <point x="396" y="198" type="curve" smooth="yes"/>
      <point x="379" y="198"/>
      <point x="292" y="139"/>
      <point x="252" y="139" type="curve" smooth="yes"/>
      <point x="178" y="139"/>
      <point x="122" y="227"/>
      <point x="122" y="249" type="curve" smooth="yes"/>
      <point x="122" y="271"/>
      <point x="178" y="299"/>
      <point x="212" y="298" type="curve" smooth="yes"/>
      <point x="265" y="297"/>
      <point x="312" y="289"/>
      <point x="331" y="289" type="curve" smooth="yes"/>
      <point x="341" y="289"/>
      <point x="348" y="296"/>
      <point x="348" y="307" type="curve" smooth="yes"/>
      <point x="348" y="328"/>
      <point x="271" y="403"/>
      <point x="209" y="403" type="curve" smooth="yes"/>
      <point x="123" y="403"/>
      <point x="39" y="257"/>
      <point x="39" y="197" type="curve" smooth="yes"/>
      <point x="39" y="167"/>
      <point x="74" y="128"/>
      <point x="74" y="113" type="curve" smooth="yes"/>
      <point x="74" y="100"/>
      <point x="60" y="100"/>
      <point x="0" y="100" type="curve"/>
      <point x="-20" y="50" type="line"/>
    </contour>
  </outline>
</glyph>
<glyph name="ain-ar.medi" format="2">
  <advance width="490"/>
  <unicode hex="FECC"/>
  <outline>
    <contour>
      <point x="0" y="100" type="curve"/>
      <point x="-20" y="50" type="line"/>
      <point x="0" y="0" type="line"/>
      <point x="133" y="0"/>
      <point x="268" y="97"/>
      <point x="281" y="97" type="curve" smooth="yes"/>
      <point x="298" y="97"/>
      <point x="399" y="0"/>
      <point x="490" y="0" type="curve"/>
      <point x="510" y="50" type="line"/>
      <point x="490" y="100" type="line"/>
      <point x="445" y="100"/>
      <point x="351" y="128"/>
      <point x="351" y="161" type="curve" smooth="yes"/>
      <point x="351" y="177"/>
      <point x="403" y="216"/>
      <point x="403" y="267" type="curve" smooth="yes"/>
      <point x="403" y="311"/>
      <point x="321" y="325"/>
      <point x="249" y="325" type="curve" smooth="yes"/>
      <point x="168" y="325"/>
      <point x="81" y="270"/>
      <point x="81" y="221" type="curve" smooth="yes"/>
      <point x="81" y="215"/>
      <point x="87" y="212"/>
      <point x="91" y="212" type="curve" smooth="yes"/>
      <point x="132" y="212"/>
      <point x="212" y="171"/>
      <point x="212" y="156" type="curve" smooth="yes"/>
      <point x="212" y="141"/>
      <point x="101" y="100"/>
    </contour>
  </outline>
</glyph>
<glyph name="feh-ar.fina" format="2">
  <advance width="730"/>
  <unicode hex="FED2"/>
  <outline>
    <contour>
      <point x="559" y="134" type="curve" smooth="yes"/>
      <point x="515" y="134"/>
      <point x="496" y="145"/>
      <point x="496" y="177" type="curve" smooth="yes"/>
      <point x="496" y="209"/>
      <point x="520" y="213"/>
      <point x="554" y="213" type="curve" smooth="yes"/>
      <point x="585" y="213"/>
      <point x="624" y="202"/>
      <point x="624" y="180" type="curve" smooth="yes"/>
      <point x="624" y="158"/>
      <point x="572" y="134"/>
    </contour>
    <contour>
      <point x="0" y="164" type="curve" smooth="yes"/>
      <point x="0" y="66"/>
      <point x="41" y="-8"/>
      <point x="223" y="-8" type="curve" smooth="yes"/>
      <point x="313" y="-8"/>
      <point x="470" y="40"/>
      <point x="496" y="40" type="curve" smooth="yes"/>
      <point x="516" y="40"/>
      <point x="608" y="0"/>
      <point x="730" y="0" type="curve"/>
      <point x="730" y="100" type="line"/>
      <point x="707" y="100"/>
      <point x="614" y="105"/>
      <point x="614" y="114" type="curve" smooth="yes"/>
      <point x="614" y="123"/>
      <point x="678" y="156"/>
      <point x="678" y="194" type="curve" smooth="yes"/>
      <point x="678" y="246"/>
      <point x="609" y="306"/>
      <point x="574" y="306" type="curve" smooth="yes"/>
      <point x="541" y="306"/>
      <point x="439" y="252"/>
      <point x="439" y="177" type="curve" smooth="yes"/>
      <point x="439" y="156"/>
      <point x="451" y="126"/>
      <point x="451" y="115" type="curve" smooth="yes"/>
      <point x="451" y="104"/>
      <point x="370" y="100"/>
      <point x="301" y="100" type="curve" smooth="yes"/>
      <point x="77" y="100"/>
      <point x="46" y="142"/>
      <point x="46" y="202" type="curve" smooth="yes"/>
      <point x="46" y="235"/>
      <point x="57" y="256"/>
      <point x="57" y="272" type="curve" smooth="yes"/>
      <point x="57" y="284"/>
      <point x="54" y="290"/>
      <point x="44" y="290" type="curve" smooth="yes"/>
      <point x="32" y="290"/>
      <point x="0" y="232"/>
    </contour>
    <component base="dotabove-ar" xOffset="458" yOffset="-152"/>
  </outline>
</glyph>
<glyph name="qaf-ar.fina" format="2">
  <advance width="780"/>
  <unicode hex="FED6"/>
  <outline>
    <contour>
      <point x="384" y="-254" type="curve" smooth="yes"/>
      <point x="287" y="-254"/>
      <point x="123" y="-225"/>
      <point x="123" y="-61" type="curve" smooth="yes"/>
      <point x="123" y="9"/>
      <point x="153" y="100"/>
      <point x="180" y="100" type="curve" smooth="yes"/>
      <point x="189" y="100"/>
      <point x="195" y="93"/>
      <point x="195" y="79" type="curve" smooth="yes"/>
      <point x="195" y="51"/>
      <point x="187" y="28"/>
      <point x="187" y="0" type="curve" smooth="yes"/>
      <point x="187" y="-112"/>
      <point x="262" y="-150"/>
      <point x="448" y="-150" type="curve" smooth="yes"/>
      <point x="568" y="-150"/>
      <point x="658" y="-86"/>
      <point x="658" y="-8" type="curve" smooth="yes"/>
      <point x="658" y="-2"/>
      <point x="654" y="0"/>
      <point x="646" y="0" type="curve" smooth="yes"/>
      <point x="553" y="0"/>
      <point x="439" y="36"/>
      <point x="439" y="100" type="curve" smooth="yes"/>
      <point x="439" y="168"/>
      <point x="532" y="296"/>
      <point x="590" y="296" type="curve" smooth="yes"/>
      <point x="639" y="296"/>
      <point x="703" y="192"/>
      <point x="711" y="116" type="curve" smooth="yes"/>
      <point x="712" y="106"/>
      <point x="714" y="100"/>
      <point x="723" y="100" type="curve" smooth="yes"/>
      <point x="780" y="100" type="line"/>
      <point x="780" y="0" type="line"/>
      <point x="723" y="0" type="line" smooth="yes"/>
      <point x="712" y="0"/>
      <point x="708" y="-2"/>
      <point x="708" y="-8" type="curve" smooth="yes"/>
      <point x="708" y="-130"/>
      <point x="621" y="-254"/>
    </contour>
    <contour>
      <point x="559" y="195" type="curve" smooth="yes"/>
      <point x="524" y="195"/>
      <point x="486" y="144"/>
      <point x="486" y="127" type="curve" smooth="yes"/>
      <point x="486" y="107"/>
      <point x="521" y="99"/>
      <point x="562" y="99" type="curve" smooth="yes"/>
      <point x="600" y="99"/>
      <point x="645" y="105"/>
      <point x="645" y="119" type="curve" smooth="yes"/>
      <point x="645" y="133"/>
      <point x="598" y="195"/>
    </contour>
    <component base="twodotshorizontalabove-ar" xOffset="413" yOffset="-135"/>
  </outline>
</glyph>
<glyph name="kaf-ar.fina" format="2">
  <advance width="805"/>
  <unicode hex="FEDA"/>
  <outline>
    <contour>
      <point x="275" y="-6" type="curve" smooth="yes"/>
      <point x="664" y="0"/>
      <point x="622" y="204"/>
      <point x="642" y="204" type="curve" smooth="yes"/>
      <point x="651" y="204"/>
      <point x="676" y="0"/>
      <point x="805" y="0" type="curve"/>
      <point x="805" y="100" type="line"/>
      <point x="681" y="100"/>
      <point x="650" y="440"/>
      <point x="650" y="669" type="curve" smooth="yes"/>
      <point x="650" y="690"/>
      <point x="648" y="700"/>
      <point x="635" y="700" type="curve" smooth="yes"/>
      <point x="617" y="700"/>
      <point x="579" y="604"/>
      <point x="579" y="578" type="curve" smooth="yes"/>
      <point x="579" y="520"/>
      <point x="600" y="312"/>
      <point x="600" y="176" type="curve" smooth="yes"/>
      <point x="600" y="135"/>
      <point x="379" y="100"/>
      <point x="291" y="100" type="curve" smooth="yes"/>
      <point x="231" y="100"/>
      <point x="77" y="114"/>
      <point x="77" y="163" type="curve" smooth="yes"/>
      <point x="77" y="195"/>
      <point x="86" y="217"/>
      <point x="86" y="235" type="curve" smooth="yes"/>
      <point x="86" y="247"/>
      <point x="80" y="255"/>
      <point x="70" y="255" type="curve" smooth="yes"/>
      <point x="54" y="255"/>
      <point x="20" y="202"/>
      <point x="20" y="112" type="curve" smooth="yes"/>
      <point x="20" y="23"/>
      <point x="143" y="-8"/>
    </contour>
    <contour>
      <point x="425" y="196" type="curve" smooth="yes"/>
      <point x="466" y="208"/>
      <point x="501" y="256"/>
      <point x="501" y="285" type="curve" smooth="yes"/>
      <point x="501" y="305"/>
      <point x="411" y="326"/>
      <point x="411" y="341" type="curve" smooth="yes"/>
      <point x="411" y="350"/>
      <point x="420" y="358"/>
      <point x="427" y="358" type="curve" smooth="yes"/>
      <point x="437" y="358"/>
      <point x="443" y="352"/>
      <point x="452" y="352" type="curve" smooth="yes"/>
      <point x="464" y="352"/>
      <point x="483" y="376"/>
      <point x="483" y="393" type="curve" smooth="yes"/>
      <point x="483" y="400"/>
      <point x="469" y="406"/>
      <point x="457" y="406" type="curve" smooth="yes"/>
      <point x="437" y="406"/>
      <point x="345" y="343"/>
      <point x="345" y="308" type="curve" smooth="yes"/>
      <point x="345" y="275"/>
      <point x="430" y="256"/>
      <point x="430" y="247" type="curve" smooth="yes"/>
      <point x="430" y="240"/>
      <point x="399" y="223"/>
      <point x="307" y="223" type="curve" smooth="yes"/>
      <point x="273" y="223"/>
      <point x="216" y="227"/>
      <point x="198" y="227" type="curve" smooth="yes"/>
      <point x="189" y="227"/>
      <point x="184" y="223"/>
      <point x="184" y="215" type="curve" smooth="yes"/>
      <point x="184" y="204"/>
      <point x="257" y="184"/>
      <point x="280" y="184" type="curve" smooth="yes"/>
      <point x="324" y="184"/>
      <point x="400" y="189"/>
    </contour>
  </outline>
</glyph>
<glyph name="kaf-ar.init" format="2">
  <advance width="792"/>
  <unicode hex="FEDB"/>
  <outline>
    <contour>
      <point x="0" y="100" type="line"/>
      <point x="-20" y="50" type="line"/>
      <point x="0" y="0" type="line"/>
      <point x="486" y="0" type="line" smooth="yes"/>
      <point x="546" y="0"/>
      <point x="594" y="-8"/>
      <point x="646" y="-8" type="curve" smooth="yes"/>
      <point x="694" y="-8"/>
      <point x="792" y="102"/>
      <point x="792" y="183" type="curve" smooth="yes"/>
      <point x="792" y="240"/>
      <point x="680" y="300"/>
      <point x="598" y="300" type="curve" smooth="yes"/>
      <point x="462" y="300"/>
      <point x="282" y="271"/>
      <point x="216" y="271" type="curve" smooth="yes"/>
      <point x="189" y="271"/>
      <point x="178" y="284"/>
      <point x="178" y="298" type="curve" smooth="yes"/>
      <point x="178" y="336"/>
      <point x="331" y="412"/>
      <point x="394" y="412" type="curve" smooth="yes"/>
      <point x="416" y="412"/>
      <point x="434" y="392"/>
      <point x="451" y="392" type="curve" smooth="yes"/>
      <point x="470" y="392"/>
      <point x="519" y="432"/>
      <point x="519" y="449" type="curve" smooth="yes"/>
      <point x="519" y="471"/>
      <point x="440" y="512"/>
      <point x="406" y="512" type="curve" smooth="yes"/>
      <point x="339" y="512"/>
      <point x="181" y="374"/>
      <point x="125" y="325" type="curve" smooth="yes"/>
      <point x="91" y="295"/>
      <point x="87" y="264"/>
      <point x="87" y="231" type="curve" smooth="yes"/>
      <point x="87" y="213"/>
      <point x="115" y="177"/>
      <point x="147" y="177" type="curve" smooth="yes"/>
      <point x="292" y="177"/>
      <point x="444" y="204"/>
      <point x="552" y="204" type="curve" smooth="yes"/>
      <point x="686" y="204"/>
      <point x="708" y="150"/>
      <point x="708" y="112" type="curve" smooth="yes"/>
      <point x="708" y="103"/>
      <point x="701" y="87"/>
      <point x="684" y="87" type="curve" smooth="yes"/>
      <point x="604" y="87"/>
      <point x="552" y="100"/>
      <point x="438" y="100" type="curve" smooth="yes"/>
    </contour>
  </outline>
</glyph>
<glyph name="kaf-ar.medi" format="2">
  <advance width="779"/>
  <unicode hex="FEDC"/>
  <outline>
    <contour>
      <point x="0" y="0" type="line"/>
      <point x="386" y="0" type="line" smooth="yes"/>
      <point x="446" y="0"/>
      <point x="481" y="-8"/>
      <point x="533" y="-8" type="curve" smooth="yes"/>
      <point x="606" y="-8"/>
      <point x="639" y="74"/>
      <point x="649" y="74" type="curve" smooth="yes"/>
      <point x="659" y="74"/>
      <point x="680" y="0"/>
      <point x="779" y="0" type="curve"/>
      <point x="799" y="50" type="line"/>
      <point x="779" y="100" type="line"/>
      <point x="699" y="100"/>
      <point x="686" y="114"/>
      <point x="686" y="127" type="curve" smooth="yes"/>
      <point x="686" y="147"/>
      <point x="692" y="159"/>
      <point x="692" y="183" type="curve" smooth="yes"/>
      <point x="692" y="242"/>
      <point x="580" y="300"/>
      <point x="498" y="300" type="curve" smooth="yes"/>
      <point x="362" y="300"/>
      <point x="282" y="271"/>
      <point x="216" y="271" type="curve" smooth="yes"/>
      <point x="189" y="271"/>
      <point x="178" y="284"/>
      <point x="178" y="298" type="curve" smooth="yes"/>
      <point x="178" y="336"/>
      <point x="331" y="412"/>
      <point x="394" y="412" type="curve" smooth="yes"/>
      <point x="416" y="412"/>
      <point x="434" y="392"/>
      <point x="451" y="392" type="curve" smooth="yes"/>
      <point x="470" y="392"/>
      <point x="519" y="432"/>
      <point x="519" y="449" type="curve" smooth="yes"/>
      <point x="519" y="471"/>
      <point x="440" y="512"/>
      <point x="406" y="512" type="curve" smooth="yes"/>
      <point x="339" y="512"/>
      <point x="181" y="374"/>
      <point x="125" y="325" type="curve" smooth="yes"/>
      <point x="91" y="295"/>
      <point x="87" y="264"/>
      <point x="87" y="231" type="curve" smooth="yes"/>
      <point x="87" y="213"/>
      <point x="115" y="177"/>
      <point x="147" y="177" type="curve" smooth="yes"/>
      <point x="292" y="177"/>
      <point x="344" y="204"/>
      <point x="452" y="204" type="curve" smooth="yes"/>
      <point x="586" y="204"/>
      <point x="608" y="150"/>
      <point x="608" y="112" type="curve" smooth="yes"/>
      <point x="608" y="103"/>
      <point x="601" y="87"/>
      <point x="584" y="87" type="curve" smooth="yes"/>
      <point x="504" y="87"/>
      <point x="452" y="100"/>
      <point x="338" y="100" type="curve" smooth="yes"/>
      <point x="0" y="100" type="line"/>
      <point x="-20" y="50" type="line"/>
    </contour>
  </outline>
</glyph>
<glyph name="lam-ar.fina" format="2">
  <advance width="653"/>
  <unicode hex="FEDE"/>
  <outline>
    <contour>
      <point x="652" y="100" type="line"/>
      <point x="625" y="100"/>
      <point x="577" y="111"/>
      <point x="564" y="140" type="curve" smooth="yes"/>
      <point x="520" y="241"/>
      <point x="497" y="510"/>
      <point x="497" y="669" type="curve" smooth="yes"/>
      <point x="497" y="683"/>
      <point x="490" y="700"/>
      <point x="483" y="700" type="curve" smooth="yes"/>
      <point x="465" y="700"/>
      <point x="407" y="600"/>
      <point x="407" y="578" type="curve" smooth="yes"/>
      <point x="407" y="520"/>
      <point x="445" y="93"/>
      <point x="445" y="-33" type="curve" smooth="yes"/>
      <point x="445" y="-124"/>
      <point x="290" y="-148"/>
      <point x="197" y="-148" type="curve" smooth="yes"/>
      <point x="97" y="-148"/>
      <point x="52" y="-63"/>
      <point x="52" y="36" type="curve" smooth="yes"/>
      <point x="52" y="108"/>
      <point x="71" y="129"/>
      <point x="71" y="147" type="curve" smooth="yes"/>
      <point x="71" y="156"/>
      <point x="63" y="165"/>
      <point x="55" y="165" type="curve" smooth="yes"/>
      <point x="39" y="165"/>
      <point x="0" y="74"/>
      <point x="0" y="-29" type="curve" smooth="yes"/>
      <point x="0" y="-118"/>
      <point x="28" y="-255"/>
      <point x="220" y="-256" type="curve" smooth="yes"/>
      <point x="412" y="-257"/>
      <point x="483" y="-108"/>
      <point x="491" y="-33" type="curve" smooth="yes"/>
      <point x="499" y="38"/>
      <point x="481" y="204"/>
      <point x="490" y="204" type="curve" smooth="yes"/>
      <point x="496" y="204"/>
      <point x="497" y="112"/>
      <point x="544" y="51" type="curve" smooth="yes"/>
      <point x="567" y="22"/>
      <point x="609" y="0"/>
      <point x="653" y="0" type="curve"/>
    </contour>
  </outline>
</glyph>
<glyph name="lam-ar.init" format="2">
  <advance width="178"/>
  <unicode hex="FEDF"/>
  <outline>
    <contour>
      <point x="0" y="0" type="line"/>
      <point x="94" y="0"/>
      <point x="158" y="27"/>
      <point x="158" y="100" type="curve" smooth="yes"/>
      <point x="158" y="182"/>
      <point x="112" y="500"/>
      <point x="112" y="526" type="curve" smooth="yes"/>
      <point x="112" y="545"/>
      <point x="138" y="567"/>
      <point x="138" y="589" type="curve" smooth="yes"/>
      <point x="138" y="608"/>
      <point x="117" y="620"/>
      <point x="103" y="639" type="curve" smooth="yes"/>
      <point x="83" y="666"/>
      <point x="79" y="699"/>
      <point x="60" y="700" type="curve" smooth="yes"/>
      <point x="38" y="701"/>
      <point x="25" y="648"/>
      <point x="25" y="627" type="curve" smooth="yes"/>
      <point x="25" y="580"/>
      <point x="91" y="266"/>
      <point x="91" y="134" type="curve" smooth="yes"/>
      <point x="91" y="111"/>
      <point x="49" y="100"/>
      <point x="0" y="100" type="curve"/>
      <point x="-20" y="50" type="line"/>
    </contour>
  </outline>
</glyph>
<glyph name="lam-ar.medi" format="2">
  <advance width="330"/>
  <unicode hex="FEE0"/>
  <outline>
    <contour>
      <point x="330" y="100" type="line"/>
      <point x="206" y="100"/>
      <point x="175" y="440"/>
      <point x="175" y="669" type="curve" smooth="yes"/>
      <point x="175" y="690"/>
      <point x="173" y="700"/>
      <point x="160" y="700" type="curve" smooth="yes"/>
      <point x="142" y="700"/>
      <point x="98" y="604"/>
      <point x="98" y="578" type="curve" smooth="yes"/>
      <point x="98" y="520"/>
      <point x="122" y="302"/>
      <point x="122" y="166" type="curve" smooth="yes"/>
      <point x="122" y="125"/>
      <point x="43" y="100"/>
      <point x="0" y="100" type="curve"/>
      <point x="-20" y="50" type="line"/>
      <point x="0" y="0" type="line"/>
      <point x="76" y="-1"/>
      <point x="101" y="24"/>
      <point x="128" y="76" type="curve" smooth="yes"/>
      <point x="152" y="126"/>
      <point x="161" y="204"/>
      <point x="167" y="204" type="curve" smooth="yes"/>
      <point x="176" y="204"/>
      <point x="215" y="0"/>
      <point x="330" y="0" type="curve"/>
      <point x="350" y="50" type="line"/>
    </contour>
  </outline>
</glyph>
<glyph name="meem-ar.fina" format="2">
  <advance width="463"/>
  <unicode hex="FEE2"/>
  <outline>
    <contour>
      <point x="463" y="0" type="curve"/>
      <point x="483" y="50" type="line"/>
      <point x="463" y="100" type="line"/>
      <point x="310" y="100"/>
      <point x="284" y="267"/>
      <point x="236" y="267" type="curve" smooth="yes"/>
      <point x="207" y="267"/>
      <point x="72" y="192"/>
      <point x="72" y="100" type="curve" smooth="yes"/>
      <point x="72" y="46"/>
      <point x="128" y="-118"/>
      <point x="128" y="-227" type="curve" smooth="yes"/>
      <point x="128" y="-293"/>
      <point x="93" y="-373"/>
      <point x="93" y="-412" type="curve" smooth="yes"/>
      <point x="93" y="-435"/>
      <point x="105" y="-450"/>
      <point x="120" y="-450" type="curve" smooth="yes"/>
      <point x="165" y="-450"/>
      <point x="222" y="-343"/>
      <point x="222" y="-286" type="curve" smooth="yes"/>
      <point x="222" y="-163"/>
      <point x="120" y="0"/>
      <point x="156" y="0" type="curve" smooth="yes"/>
      <point x="170" y="0"/>
      <point x="215" y="-30"/>
      <point x="245" y="-30" type="curve" smooth="yes"/>
      <point x="293" y="-30"/>
      <point x="285" y="44"/>
      <point x="300" y="44" type="curve" smooth="yes"/>
      <point x="312" y="44"/>
      <point x="377" y="0"/>
    </contour>
    <contour>
      <point x="231" y="73" type="curve" smooth="yes"/>
      <point x="201" y="73"/>
      <point x="131" y="119"/>
      <point x="131" y="139" type="curve" smooth="yes"/>
      <point x="131" y="154"/>
      <point x="167" y="185"/>
      <point x="179" y="185" type="curve" smooth="yes"/>
      <point x="202" y="185"/>
      <point x="245" y="107"/>
      <point x="245" y="88" type="curve" smooth="yes"/>
      <point x="245" y="79"/>
      <point x="243" y="73"/>
    </contour>
  </outline>
</glyph>
<glyph name="meem-ar.init" format="2">
  <advance width="442"/>
  <unicode hex="FEE3"/>
  <outline>
    <contour>
      <point x="0" y="0" type="line"/>
      <point x="102" y="0"/>
      <point x="156" y="87"/>
      <point x="176" y="87" type="curve" smooth="yes"/>
      <point x="189" y="87"/>
      <point x="228" y="0"/>
      <point x="330" y="0" type="curve" smooth="yes"/>
      <point x="395" y="0"/>
      <point x="422" y="61"/>
      <point x="422" y="132" type="curve" smooth="yes"/>
      <point x="422" y="243"/>
      <point x="342" y="299"/>
      <point x="304" y="299" type="curve" smooth="yes"/>
      <point x="201" y="299"/>
      <point x="209" y="100"/>
      <point x="0" y="100" type="curve"/>
      <point x="-20" y="50" type="line"/>
    </contour>
    <contour>
      <point x="353" y="100" type="curve" smooth="yes"/>
      <point x="318" y="100"/>
      <point x="223" y="127"/>
      <point x="223" y="144" type="curve" smooth="yes"/>
      <point x="223" y="159"/>
      <point x="268" y="198"/>
      <point x="289" y="198" type="curve" smooth="yes"/>
      <point x="310" y="198"/>
      <point x="374" y="143"/>
      <point x="374" y="118" type="curve" smooth="yes"/>
      <point x="374" y="106"/>
      <point x="366" y="100"/>
    </contour>
  </outline>
</glyph>
<glyph name="meem-ar.medi" format="2">
  <advance width="464"/>
  <unicode hex="FEE4"/>
  <outline>
    <contour>
      <point x="464" y="0" type="curve"/>
      <point x="484" y="50" type="line"/>
      <point x="464" y="100" type="line"/>
      <point x="310" y="100"/>
      <point x="316" y="251"/>
      <point x="222" y="251" type="curve" smooth="yes"/>
      <point x="161" y="251"/>
      <point x="141" y="169"/>
      <point x="128" y="146" type="curve" smooth="yes"/>
      <point x="109" y="115"/>
      <point x="90" y="100"/>
      <point x="0" y="100" type="curve"/>
      <point x="-20" y="50" type="line"/>
      <point x="0" y="0" type="line"/>
      <point x="55" y="0"/>
      <point x="95" y="43"/>
      <point x="114" y="43" type="curve" smooth="yes"/>
      <point x="139" y="43"/>
      <point x="163" y="-51"/>
      <point x="234" y="-48" type="curve" smooth="yes"/>
      <point x="300" y="-46"/>
      <point x="304" y="65"/>
      <point x="322" y="65" type="curve" smooth="yes"/>
      <point x="337" y="65"/>
      <point x="387" y="-3"/>
    </contour>
    <contour>
      <point x="233" y="59" type="curve" smooth="yes"/>
      <point x="206" y="59"/>
      <point x="167" y="94"/>
      <point x="167" y="118" type="curve" smooth="yes"/>
      <point x="167" y="132"/>
      <point x="186" y="163"/>
      <point x="203" y="163" type="curve" smooth="yes"/>
      <point x="225" y="163"/>
      <point x="271" y="121"/>
      <point x="271" y="100" type="curve" smooth="yes"/>
      <point x="271" y="90"/>
      <point x="257" y="59"/>
    </contour>
  </outline>
</glyph>
<glyph name="heh-ar.fina" format="2">
  <advance width="471"/>
  <unicode hex="FEEA"/>
  <anchor x="177" y="-35" name="bottom"/>
  <anchor x="326" y="390" name="top"/>
  <outline>
    <contour>
      <point x="164" y="100" type="curve" smooth="yes"/>
      <point x="284" y="100"/>
      <point x="301" y="109"/>
      <point x="303" y="130" type="curve" smooth="yes"/>
      <point x="305" y="146"/>
      <point x="297" y="202"/>
      <point x="285" y="202" type="curve" smooth="yes"/>
      <point x="252" y="202"/>
      <point x="98" y="139"/>
      <point x="98" y="118" type="curve" smooth="yes"/>
      <point x="98" y="104"/>
      <point x="116" y="100"/>
    </contour>
    <contour>
      <point x="471" y="0" type="line"/>
      <point x="351" y="-2"/>
      <point x="351" y="70"/>
      <point x="329" y="70" type="curve" smooth="yes"/>
      <point x="319" y="70"/>
      <point x="315" y="50"/>
      <point x="297" y="35" type="curve" smooth="yes"/>
      <point x="270" y="13"/>
      <point x="208" y="0"/>
      <point x="112" y="0" type="curve" smooth="yes"/>
      <point x="52" y="0"/>
      <point x="10" y="32"/>
      <point x="10" y="70" type="curve" smooth="yes"/>
      <point x="10" y="155"/>
      <point x="206" y="237"/>
      <point x="265" y="278" type="curve" smooth="yes"/>
      <point x="278" y="287"/>
      <point x="283" y="294"/>
      <point x="283" y="299" type="curve" smooth="yes"/>
      <point x="283" y="320"/>
      <point x="319" y="369"/>
      <point x="333" y="369" type="curve" smooth="yes"/>
      <point x="343" y="369"/>
      <point x="351" y="363"/>
      <point x="351" y="346" type="curve" smooth="yes"/>
      <point x="351" y="249"/>
      <point x="356" y="100"/>
      <point x="471" y="100" type="curve"/>
      <point x="491" y="50" type="line"/>
    </contour>
  </outline>
</glyph>
<glyph name="heh-ar.init" format="2">
  <advance width="430"/>
  <unicode hex="FEEB"/>
  <outline>
    <contour>
      <point x="277" y="420" type="curve" smooth="yes"/>
      <point x="318" y="420"/>
      <point x="430" y="243"/>
      <point x="430" y="170" type="curve" smooth="yes"/>
      <point x="430" y="143"/>
      <point x="369" y="37"/>
      <point x="333" y="37" type="curve" smooth="yes"/>
      <point x="263" y="37"/>
      <point x="203" y="81"/>
      <point x="191" y="81" type="curve" smooth="yes"/>
      <point x="175" y="81"/>
      <point x="57" y="0"/>
      <point x="0" y="0" type="curve"/>
      <point x="-20" y="50" type="line"/>
      <point x="0" y="100" type="line"/>
      <point x="36" y="100"/>
      <point x="119" y="106"/>
      <point x="119" y="120" type="curve" smooth="yes"/>
      <point x="119" y="130"/>
      <point x="67" y="167"/>
      <point x="67" y="189" type="curve" smooth="yes"/>
      <point x="67" y="258"/>
      <point x="206" y="347"/>
      <point x="206" y="356" type="curve" smooth="yes"/>
      <point x="206" y="363"/>
      <point x="195" y="369"/>
      <point x="195" y="380" type="curve" smooth="yes"/>
      <point x="195" y="392"/>
      <point x="239" y="420"/>
    </contour>
    <contour>
      <point x="199" y="284" type="curve" smooth="yes"/>
      <point x="171" y="284"/>
      <point x="138" y="256"/>
      <point x="138" y="227" type="curve" smooth="yes"/>
      <point x="138" y="218"/>
      <point x="183" y="181"/>
      <point x="198" y="181" type="curve" smooth="yes"/>
      <point x="223" y="181"/>
      <point x="244" y="186"/>
      <point x="245" y="205" type="curve" smooth="yes"/>
      <point x="246" y="233"/>
      <point x="215" y="284"/>
    </contour>
    <contour>
      <point x="348" y="130" type="curve" smooth="yes"/>
      <point x="354" y="130"/>
      <point x="365" y="135"/>
      <point x="365" y="148" type="curve" smooth="yes"/>
      <point x="365" y="164"/>
      <point x="336" y="240"/>
      <point x="314" y="240" type="curve" smooth="yes"/>
      <point x="305" y="240"/>
      <point x="254" y="172"/>
      <point x="254" y="163" type="curve" smooth="yes"/>
      <point x="254" y="150"/>
      <point x="304" y="128"/>
    </contour>
  </outline>
</glyph>
<glyph name="heh-ar.medi" format="2">
  <advance width="372"/>
  <unicode hex="FEEC"/>
  <outline>
    <contour>
      <point x="0" y="100" type="line"/>
      <point x="-20" y="50" type="line"/>
      <point x="0" y="0" type="line"/>
      <point x="25" y="0" type="line" smooth="yes"/>
      <point x="32" y="0"/>
      <point x="36" y="-4"/>
      <point x="36" y="-8" type="curve" smooth="yes"/>
      <point x="45" y="-176"/>
      <point x="124" y="-273"/>
      <point x="208" y="-273" type="curve" smooth="yes"/>
      <point x="311" y="-273"/>
      <point x="336" y="-152"/>
      <point x="336" y="-86" type="curve" smooth="yes"/>
      <point x="336" y="-55"/>
      <point x="302" y="-21"/>
      <point x="302" y="-14" type="curve" smooth="yes"/>
      <point x="302" y="-1"/>
      <point x="321" y="0"/>
      <point x="372" y="0" type="curve"/>
      <point x="392" y="50" type="line"/>
      <point x="372" y="100" type="line"/>
      <point x="213" y="100" type="line" smooth="yes"/>
      <point x="207" y="100"/>
      <point x="203" y="103"/>
      <point x="203" y="108" type="curve" smooth="yes"/>
      <point x="203" y="115"/>
      <point x="258" y="167"/>
      <point x="258" y="203" type="curve" smooth="yes"/>
      <point x="258" y="290"/>
      <point x="178" y="401"/>
      <point x="141" y="401" type="curve" smooth="yes"/>
      <point x="97" y="401"/>
      <point x="48" y="290"/>
      <point x="37" y="111" type="curve" smooth="yes"/>
      <point x="37" y="104"/>
      <point x="32" y="100"/>
      <point x="25" y="100" type="curve" smooth="yes"/>
    </contour>
    <contour>
      <point x="87" y="99" type="curve" smooth="yes"/>
      <point x="78" y="99"/>
      <point x="73" y="102"/>
      <point x="73" y="110" type="curve" smooth="yes"/>
      <point x="73" y="201"/>
      <point x="100" y="277"/>
      <point x="115" y="277" type="curve" smooth="yes"/>
      <point x="131" y="277"/>
      <point x="186" y="204"/>
      <point x="186" y="180" type="curve" smooth="yes"/>
      <point x="186" y="152"/>
      <point x="110" y="99"/>
    </contour>
    <contour>
      <point x="238" y="-166" type="curve" smooth="yes"/>
      <point x="147" y="-166"/>
      <point x="85" y="-32"/>
      <point x="85" y="-15" type="curve" smooth="yes"/>
      <point x="85" y="-12"/>
      <point x="86" y="-10"/>
      <point x="90" y="-10" type="curve" smooth="yes"/>
      <point x="241" y="-10"/>
      <point x="305" y="-111"/>
      <point x="305" y="-128" type="curve" smooth="yes"/>
      <point x="305" y="-144"/>
      <point x="275" y="-166"/>
    </contour>
  </outline>
</glyph>
<glyph name="waw-ar.fina" format="2">
  <advance width="477"/>
  <unicode hex="FEEE"/>
  <outline>
    <contour>
      <point x="194" y="-254" type="curve" smooth="yes"/>
      <point x="127" y="-254"/>
      <point x="4" y="-167"/>
      <point x="4" y="-137" type="curve" smooth="yes"/>
      <point x="4" y="-129"/>
      <point x="8" y="-125"/>
      <point x="16" y="-125" type="curve" smooth="yes"/>
      <point x="41" y="-125"/>
      <point x="120" y="-153"/>
      <point x="185" y="-153" type="curve" smooth="yes"/>
      <point x="232" y="-153"/>
      <point x="343" y="-24"/>
      <point x="343" y="-4" type="curve" smooth="yes"/>
      <point x="343" y="-1"/>
      <point x="341" y="0"/>
      <point x="337" y="0" type="curve" smooth="yes"/>
      <point x="181" y="0"/>
      <point x="152" y="33"/>
      <point x="152" y="101" type="curve" smooth="yes"/>
      <point x="152" y="178"/>
      <point x="230" y="282"/>
      <point x="282" y="282" type="curve" smooth="yes"/>
      <point x="327" y="282"/>
      <point x="383" y="188"/>
      <point x="400" y="105" type="curve" smooth="yes"/>
      <point x="401" y="101"/>
      <point x="403" y="100"/>
      <point x="405" y="100" type="curve" smooth="yes"/>
      <point x="477" y="100" type="line"/>
      <point x="477" y="0" type="line"/>
      <point x="404" y="0" type="line" smooth="yes"/>
      <point x="399" y="0"/>
      <point x="396" y="-2"/>
      <point x="395" y="-6" type="curve" smooth="yes"/>
      <point x="356" y="-151"/>
      <point x="275" y="-254"/>
    </contour>
    <contour>
      <point x="253" y="100" type="curve" smooth="yes"/>
      <point x="337" y="100" type="line" smooth="yes"/>
      <point x="342" y="100"/>
      <point x="343" y="102"/>
      <point x="343" y="105" type="curve" smooth="yes"/>
      <point x="343" y="118"/>
      <point x="301" y="185"/>
      <point x="266" y="185" type="curve" smooth="yes"/>
      <point x="232" y="185"/>
      <point x="189" y="140"/>
      <point x="189" y="124" type="curve" smooth="yes"/>
      <point x="189" y="108"/>
      <point x="212" y="100"/>
    </contour>
  </outline>
</glyph>
<glyph name="alefMaksura-ar.fina" format="2">
  <advance width="571"/>
  <unicode hex="FEF0"/>
  <anchor x="267" y="-320" name="bottom"/>
  <anchor x="236" y="184" name="top"/>
  <outline>
    <contour>
      <point x="206" y="-254" type="curve" smooth="yes"/>
      <point x="464" y="-254"/>
      <point x="539" y="-121"/>
      <point x="539" y="-52" type="curve" smooth="yes"/>
      <point x="539" y="-32"/>
      <point x="529" y="-17"/>
      <point x="529" y="-5" type="curve" smooth="yes"/>
      <point x="529" y="-2"/>
      <point x="531" y="0"/>
      <point x="535" y="0" type="curve" smooth="yes"/>
      <point x="571" y="0" type="line"/>
      <point x="591" y="50" type="line"/>
      <point x="571" y="100" type="line"/>
      <point x="370" y="100"/>
      <point x="346" y="137"/>
      <point x="315" y="137" type="curve" smooth="yes"/>
      <point x="298" y="137"/>
      <point x="272" y="102"/>
      <point x="272" y="71" type="curve" smooth="yes"/>
      <point x="272" y="53"/>
      <point x="284" y="48"/>
      <point x="375" y="6" type="curve" smooth="yes"/>
      <point x="448" y="-28"/>
      <point x="488" y="-54"/>
      <point x="488" y="-81" type="curve" smooth="yes"/>
      <point x="488" y="-129"/>
      <point x="315" y="-154"/>
      <point x="241" y="-154" type="curve" smooth="yes"/>
      <point x="95" y="-154"/>
      <point x="67" y="-124"/>
      <point x="67" y="-20" type="curve" smooth="yes"/>
      <point x="67" y="16"/>
      <point x="77" y="44"/>
      <point x="77" y="59" type="curve" smooth="yes"/>
      <point x="77" y="69"/>
      <point x="73" y="75"/>
      <point x="64" y="75" type="curve" smooth="yes"/>
      <point x="49" y="75"/>
      <point x="20" y="-12"/>
      <point x="20" y="-81" type="curve" smooth="yes"/>
      <point x="20" y="-181"/>
      <point x="87" y="-254"/>
    </contour>
  </outline>
</glyph>
<glyph name="lam_alef-ar" format="2">
  <advance width="490"/>
  <unicode hex="FEFB"/>
  <outline>
    <contour>
      <point x="357" y="0" type="curve"/>
      <point x="187" y="0" type="line" smooth="yes"/>
      <point x="155" y="0"/>
      <point x="136" y="9"/>
      <point x="136" y="32" type="curve" smooth="yes"/>
      <point x="136" y="84"/>
      <point x="142" y="96"/>
      <point x="182" y="112" type="curve" smooth="yes"/>
      <point x="254" y="142"/>
      <point x="332" y="187"/>
      <point x="332" y="202" type="curve" smooth="yes"/>
      <point x="332" y="241"/>
      <point x="122" y="577"/>
      <point x="97" y="577" type="curve" smooth="yes"/>
      <point x="89" y="577"/>
      <point x="45" y="566"/>
      <point x="26" y="566" type="curve" smooth="yes"/>
      <point x="11" y="566"/>
      <point x="0" y="578"/>
      <point x="0" y="595" type="curve" smooth="yes"/>
      <point x="0" y="636"/>
      <point x="68" y="700"/>
      <point x="93" y="700" type="curve" smooth="yes"/>
      <point x="109" y="700"/>
      <point x="118" y="692"/>
      <point x="156" y="640" type="curve" smooth="yes"/>
      <point x="332" y="399"/>
      <point x="375" y="272"/>
      <point x="389" y="272" type="curve" smooth="yes"/>
      <point x="396" y="272"/>
      <point x="420" y="325"/>
      <point x="420" y="421" type="curve" smooth="yes"/>
      <point x="420" y="575"/>
      <point x="353" y="612"/>
      <point x="353" y="649" type="curve" smooth="yes"/>
      <point x="353" y="670"/>
      <point x="373" y="700"/>
      <point x="396" y="700" type="curve" smooth="yes"/>
      <point x="440" y="700"/>
      <point x="470" y="605"/>
      <point x="470" y="473" type="curve" smooth="yes"/>
      <point x="470" y="284"/>
      <point x="415" y="228"/>
      <point x="415" y="211" type="curve" smooth="yes"/>
      <point x="415" y="198"/>
      <point x="443" y="151"/>
      <point x="443" y="100" type="curve" smooth="yes"/>
      <point x="443" y="28"/>
      <point x="400" y="0"/>
    </contour>
    <contour>
      <point x="341" y="100" type="curve" smooth="yes"/>
      <point x="357" y="100"/>
      <point x="364" y="103"/>
      <point x="364" y="113" type="curve" smooth="yes"/>
      <point x="364" y="123"/>
      <point x="359" y="148"/>
      <point x="351" y="148" type="curve" smooth="yes"/>
      <point x="346" y="148"/>
      <point x="333" y="136"/>
      <point x="325" y="131" type="curve" smooth="yes"/>
      <point x="301" y="117"/>
      <point x="289" y="114"/>
      <point x="289" y="107" type="curve" smooth="yes"/>
      <point x="289" y="102"/>
      <point x="299" y="100"/>
    </contour>
  </outline>
</glyph>
<glyph name="lam_alef-ar.fina" format="2">
  <advance width="579"/>
  <unicode hex="FEFC"/>
  <outline>
    <contour>
      <point x="579" y="100" type="line"/>
      <point x="455" y="100"/>
      <point x="419" y="440"/>
      <point x="419" y="669" type="curve" smooth="yes"/>
      <point x="419" y="690"/>
      <point x="417" y="700"/>
      <point x="404" y="700" type="curve" smooth="yes"/>
      <point x="386" y="700"/>
      <point x="337" y="604"/>
      <point x="337" y="578" type="curve" smooth="yes"/>
      <point x="337" y="520"/>
      <point x="371" y="302"/>
      <point x="371" y="166" type="curve" smooth="yes"/>
      <point x="371" y="20"/>
      <point x="62" y="68"/>
      <point x="62" y="37" type="curve" smooth="yes"/>
      <point x="62" y="13"/>
      <point x="188" y="8"/>
      <point x="249" y="0" type="curve"/>
      <point x="325" y="-1"/>
      <point x="350" y="24"/>
      <point x="377" y="76" type="curve" smooth="yes"/>
      <point x="401" y="126"/>
      <point x="410" y="204"/>
      <point x="416" y="204" type="curve" smooth="yes"/>
      <point x="425" y="204"/>
      <point x="464" y="0"/>
      <point x="579" y="0" type="curve"/>
      <point x="599" y="50" type="line"/>
    </contour>
    <contour>
      <point x="294" y="150" type="curve" smooth="yes"/>
      <point x="308" y="150"/>
      <point x="309" y="197"/>
      <point x="309" y="270" type="curve" smooth="yes"/>
      <point x="309" y="462"/>
      <point x="152" y="700"/>
      <point x="102" y="700" type="curve" smooth="yes"/>
      <point x="72" y="700"/>
      <point x="-1" y="640"/>
      <point x="-1" y="598" type="curve" smooth="yes"/>
      <point x="-1" y="590"/>
      <point x="7" y="564"/>
      <point x="26" y="564" type="curve" smooth="yes"/>
      <point x="43" y="564"/>
      <point x="67" y="575"/>
      <point x="92" y="575" type="curve" smooth="yes"/>
      <point x="133" y="575"/>
      <point x="256" y="419"/>
      <point x="281" y="166" type="curve" smooth="yes"/>
      <point x="282" y="154"/>
      <point x="284" y="150"/>
    </contour>
  </outline>
</glyph>
<glyph name="behDotless-ar.fina" format="2">
  <advance width="927"/>
  <outline>
    <contour>
      <point x="270" y="-10" type="curve" smooth="yes"/>
      <point x="102" y="-10"/>
      <point x="10" y="54"/>
      <point x="10" y="183" type="curve" smooth="yes"/>
      <point x="10" y="257"/>
      <point x="53" y="325"/>
      <point x="69" y="325" type="curve" smooth="yes"/>
      <point x="80" y="325"/>
      <point x="85" y="318"/>
      <point x="85" y="305" type="curve" smooth="yes"/>
      <point x="85" y="289"/>
      <point x="70" y="262"/>
      <point x="70" y="230" type="curve" smooth="yes"/>
      <point x="70" y="123"/>
      <point x="191" y="100"/>
      <point x="336" y="100" type="curve" smooth="yes"/>
      <point x="681" y="100"/>
      <point x="784" y="211"/>
      <point x="810" y="211" type="curve" smooth="yes"/>
      <point x="828" y="211"/>
      <point x="831" y="201"/>
      <point x="831" y="185" type="curve" smooth="yes"/>
      <point x="831" y="118"/>
      <point x="889" y="100"/>
      <point x="927" y="100" type="curve"/>
      <point x="947" y="50" type="line"/>
      <point x="927" y="0" type="line"/>
      <point x="798" y="0"/>
      <point x="791" y="95"/>
      <point x="772" y="95" type="curve" smooth="yes"/>
      <point x="737" y="95"/>
      <point x="616" y="-10"/>
    </contour>
  </outline>
</glyph>
<glyph name="behDotless-ar.init" format="2">
  <advance width="213"/>
  <anchor x="115" y="359" name="top"/>
  <outline>
    <contour>
      <point x="0" y="0" type="curve"/>
      <point x="-20" y="50" type="line"/>
      <point x="0" y="100" type="line"/>
      <point x="120" y="100"/>
      <point x="137" y="126"/>
      <point x="137" y="146" type="curve" smooth="yes"/>
      <point x="137" y="164"/>
      <point x="86" y="203"/>
      <point x="86" y="227" type="curve" smooth="yes"/>
      <point x="86" y="254"/>
      <point x="110" y="325"/>
      <point x="127" y="325" type="curve" smooth="yes"/>
      <point x="152" y="325"/>
      <point x="193" y="240"/>
      <point x="193" y="182" type="curve" smooth="yes"/>
      <point x="193" y="90"/>
      <point x="145" y="0"/>
    </contour>
  </outline>
</glyph>
<glyph name="behDotless-ar.medi" format="2">
  <advance width="310"/>
  <anchor x="186" y="-20" name="bottom"/>
  <anchor x="230" y="234" name="top"/>
  <outline>
    <contour>
      <point x="310" y="0" type="line"/>
      <point x="158" y="0"/>
      <point x="161" y="66"/>
      <point x="136" y="66" type="curve" smooth="yes"/>
      <point x="109" y="66"/>
      <point x="97" y="0"/>
      <point x="0" y="0" type="curve"/>
      <point x="-20" y="50" type="line"/>
      <point x="0" y="100" type="line"/>
      <point x="134" y="100"/>
      <point x="128" y="211"/>
      <point x="160" y="211" type="curve" smooth="yes"/>
      <point x="175" y="211"/>
      <point x="180" y="203"/>
      <point x="180" y="180" type="curve" smooth="yes"/>
      <point x="180" y="138"/>
      <point x="222" y="100"/>
      <point x="310" y="100" type="curve"/>
      <point x="330" y="50" type="line"/>
    </contour>
  </outline>
</glyph>
<glyph name="dotcenter-ar" format="2">
  <advance width="160"/>
  <outline>
    <contour>
      <point x="80" y="233" type="curve" smooth="yes"/>
      <point x="97" y="233"/>
      <point x="150" y="287"/>
      <point x="150" y="303" type="curve" smooth="yes"/>
      <point x="150" y="320"/>
      <point x="97" y="373"/>
      <point x="80" y="373" type="curve" smooth="yes"/>
      <point x="63" y="373"/>
      <point x="10" y="320"/>
      <point x="10" y="303" type="curve" smooth="yes"/>
      <point x="10" y="287"/>
      <point x="63" y="233"/>
    </contour>
  </outline>
</glyph>
<glyph name="fehDotless-ar.fina" format="2">
  <advance width="600"/>
  <outline>
    <contour>
      <point x="584" y="275" type="curve" smooth="yes"/>
      <point x="569" y="275"/>
      <point x="563" y="199"/>
      <point x="500" y="199" type="curve" smooth="yes"/>
      <point x="459" y="199"/>
      <point x="417" y="228"/>
      <point x="417" y="285" type="curve" smooth="yes"/>
      <point x="417" y="344"/>
      <point x="462" y="445"/>
      <point x="506" y="445" type="curve" smooth="yes"/>
      <point x="586" y="445"/>
      <point x="654" y="298"/>
      <point x="654" y="240" type="curve" smooth="yes"/>
      <point x="654" y="93"/>
      <point x="602" y="-8"/>
      <point x="323" y="-8" type="curve" smooth="yes"/>
      <point x="1" y="-8"/>
      <point x="0" y="66"/>
      <point x="0" y="164" type="curve" smooth="yes"/>
      <point x="0" y="232"/>
      <point x="32" y="290"/>
      <point x="44" y="290" type="curve" smooth="yes"/>
      <point x="54" y="290"/>
      <point x="57" y="284"/>
      <point x="57" y="272" type="curve" smooth="yes"/>
      <point x="57" y="256"/>
      <point x="46" y="235"/>
      <point x="46" y="202" type="curve" smooth="yes"/>
      <point x="46" y="142"/>
      <point x="77" y="100"/>
      <point x="301" y="100" type="curve" smooth="yes"/>
      <point x="438" y="100"/>
      <point x="616" y="129"/>
      <point x="616" y="211" type="curve" smooth="yes"/>
      <point x="616" y="244"/>
      <point x="598" y="275"/>
    </contour>
    <contour>
      <point x="502" y="296" type="curve" smooth="yes"/>
      <point x="523" y="296"/>
      <point x="543" y="306"/>
      <point x="543" y="320" type="curve" smooth="yes"/>
      <point x="543" y="334"/>
      <point x="528" y="344"/>
      <point x="502" y="344" type="curve" smooth="yes"/>
      <point x="474" y="344"/>
      <point x="459" y="334"/>
      <point x="459" y="320" type="curve" smooth="yes"/>
      <point x="459" y="306"/>
      <point x="474" y="296"/>
    </contour>
  </outline>
</glyph>
<glyph name="fehDotless-ar.init" format="2">
  <advance width="304"/>
  <outline>
    <contour>
      <point x="0" y="0" type="curve"/>
      <point x="-20" y="50" type="line"/>
      <point x="0" y="100" type="line"/>
      <point x="237" y="102"/>
      <point x="262" y="108"/>
      <point x="262" y="194" type="curve" smooth="yes"/>
      <point x="262" y="206"/>
      <point x="260" y="211"/>
      <point x="257" y="211" type="curve" smooth="yes"/>
      <point x="249" y="211"/>
      <point x="229" y="155"/>
      <point x="152" y="155" type="curve" smooth="yes"/>
      <point x="94" y="155"/>
      <point x="53" y="191"/>
      <point x="53" y="251" type="curve" smooth="yes"/>
      <point x="53" y="342"/>
      <point x="134" y="420"/>
      <point x="179" y="420" type="curve" smooth="yes"/>
      <point x="243" y="420"/>
      <point x="304" y="283"/>
      <point x="304" y="196" type="curve" smooth="yes"/>
      <point x="304" y="53"/>
      <point x="210" y="0"/>
    </contour>
    <contour>
      <point x="168" y="325" type="curve" smooth="yes"/>
      <point x="138" y="325"/>
      <point x="90" y="290"/>
      <point x="90" y="274" type="curve" smooth="yes"/>
      <point x="90" y="256"/>
      <point x="122" y="250"/>
      <point x="167" y="250" type="curve" smooth="yes"/>
      <point x="209" y="250"/>
      <point x="239" y="262"/>
      <point x="239" y="272" type="curve" smooth="yes"/>
      <point x="239" y="287"/>
      <point x="190" y="325"/>
    </contour>
  </outline>
</glyph>
<glyph name="fehDotless-ar.medi" format="2">
  <advance width="330"/>
  <anchor x="133" y="0" name="bottom"/>
  <outline>
    <contour>
      <point x="0" y="100" type="line"/>
      <point x="-20" y="50" type="line"/>
      <point x="0" y="0" type="line"/>
      <point x="91" y="0"/>
      <point x="110" y="33"/>
      <point x="123" y="33" type="curve" smooth="yes"/>
      <point x="142" y="33"/>
      <point x="193" y="0"/>
      <point x="330" y="0" type="curve"/>
      <point x="350" y="50" type="line"/>
      <point x="330" y="100" type="line"/>
      <point x="253" y="100" type="line" smooth="yes"/>
      <point x="233" y="100"/>
      <point x="224" y="103"/>
      <point x="224" y="107" type="curve" smooth="yes"/>
      <point x="224" y="114"/>
      <point x="288" y="158"/>
      <point x="288" y="202" type="curve" smooth="yes"/>
      <point x="288" y="272"/>
      <point x="221" y="325"/>
      <point x="168" y="325" type="curve" smooth="yes"/>
      <point x="111" y="325"/>
      <point x="44" y="217"/>
      <point x="44" y="169" type="curve" smooth="yes"/>
      <point x="44" y="133"/>
      <point x="62" y="117"/>
      <point x="62" y="105" type="curve" smooth="yes"/>
      <point x="62" y="100"/>
      <point x="56" y="100"/>
      <point x="50" y="100" type="curve" smooth="yes"/>
    </contour>
    <contour>
      <point x="163" y="114" type="curve" smooth="yes"/>
      <point x="137" y="114"/>
      <point x="83" y="159"/>
      <point x="83" y="193" type="curve" smooth="yes"/>
      <point x="83" y="215"/>
      <point x="97" y="224"/>
      <point x="129" y="224" type="curve" smooth="yes"/>
      <point x="177" y="224"/>
      <point x="213" y="181"/>
      <point x="213" y="160" type="curve" smooth="yes"/>
      <point x="213" y="141"/>
      <point x="175" y="114"/>
    </contour>
  </outline>
</glyph>
<glyph name="kaf-ar.medi.cringe" format="2">
  <advance width="456"/>
  <outline>
    <contour>
      <point x="0" y="0" type="line"/>
      <point x="190" y="0"/>
      <point x="190" y="124"/>
      <point x="211" y="124" type="curve" smooth="yes"/>
      <point x="239" y="124"/>
      <point x="297" y="0"/>
      <point x="456" y="0" type="curve"/>
      <point x="456" y="100" type="line"/>
      <point x="406" y="101" type="line" smooth="yes"/>
      <point x="338" y="102"/>
      <point x="281" y="189"/>
      <point x="231" y="243" type="curve" smooth="yes"/>
      <point x="154" y="327"/>
      <point x="76" y="442"/>
      <point x="76" y="459" type="curve" smooth="yes"/>
      <point x="76" y="480"/>
      <point x="188" y="560"/>
      <point x="378" y="700" type="curve" smooth="yes"/>
      <point x="420" y="731"/>
      <point x="456" y="795"/>
      <point x="456" y="810" type="curve" smooth="yes"/>
      <point x="456" y="822"/>
      <point x="451" y="830"/>
      <point x="439" y="830" type="curve" smooth="yes"/>
      <point x="424" y="830"/>
      <point x="301" y="722"/>
      <point x="63" y="551" type="curve" smooth="yes"/>
      <point x="39" y="534"/>
      <point x="-17" y="442"/>
      <point x="-17" y="420" type="curve" smooth="yes"/>
      <point x="-17" y="407"/>
      <point x="10" y="348"/>
      <point x="25" y="327" type="curve" smooth="yes"/>
      <point x="39" y="308"/>
      <point x="47" y="346"/>
      <point x="51" y="341" type="curve" smooth="yes"/>
      <point x="98" y="283"/>
      <point x="160" y="212"/>
      <point x="160" y="170" type="curve" smooth="yes"/>
      <point x="160" y="119"/>
      <point x="131" y="100"/>
      <point x="87" y="100" type="curve" smooth="yes"/>
      <point x="0" y="100" type="line"/>
      <point x="-21" y="50" type="line"/>
    </contour>
  </outline>
</glyph>
<glyph name="lam_alefWasla-ar" format="2">
  <advance width="420"/>
  <outline>
    <contour>
      <point x="362" y="790" type="line"/>
      <point x="361" y="447" type="line"/>
      <point x="294" y="326" type="line"/>
      <point x="342" y="200" type="line"/>
      <point x="390" y="58" type="line"/>
      <point x="376" y="-3" type="line"/>
      <point x="-60" y="3" type="line"/>
      <point x="8" y="123" type="line"/>
      <point x="164" y="276" type="line"/>
      <point x="38" y="436" type="line"/>
      <point x="-40" y="766" type="line"/>
      <point x="38" y="767" type="line"/>
      <point x="120" y="464" type="line"/>
      <point x="224" y="352" type="line"/>
      <point x="273" y="509" type="line"/>
      <point x="284" y="773" type="line"/>
    </contour>
    <contour>
      <point x="233" y="203" type="line"/>
      <point x="87" y="77" type="line"/>
      <point x="298" y="75" type="line"/>
    </contour>
  </outline>
</glyph>
<glyph name="lam_lam-ar.init.liga" format="2">
  <advance width="478"/>
  <outline>
    <contour>
      <point x="0" y="0" type="line"/>
      <point x="113" y="-1"/>
      <point x="134" y="121"/>
      <point x="167" y="121" type="curve" smooth="yes"/>
      <point x="181" y="121"/>
      <point x="215" y="0"/>
      <point x="330" y="0" type="curve" smooth="yes"/>
      <point x="424" y="0"/>
      <point x="458" y="27"/>
      <point x="458" y="100" type="curve" smooth="yes"/>
      <point x="458" y="211"/>
      <point x="419" y="371"/>
      <point x="398" y="421" type="curve" smooth="yes"/>
      <point x="386" y="449"/>
      <point x="379" y="472"/>
      <point x="360" y="473" type="curve" smooth="yes"/>
      <point x="338" y="474"/>
      <point x="325" y="421"/>
      <point x="325" y="400" type="curve" smooth="yes"/>
      <point x="325" y="353"/>
      <point x="391" y="266"/>
      <point x="391" y="134" type="curve" smooth="yes"/>
      <point x="391" y="111"/>
      <point x="379" y="100"/>
      <point x="330" y="100" type="curve" smooth="yes"/>
      <point x="206" y="100"/>
      <point x="175" y="213"/>
      <point x="175" y="442" type="curve" smooth="yes"/>
      <point x="175" y="463"/>
      <point x="173" y="473"/>
      <point x="160" y="473" type="curve" smooth="yes"/>
      <point x="142" y="473"/>
      <point x="98" y="377"/>
      <point x="98" y="351" type="curve" smooth="yes"/>
      <point x="98" y="293"/>
      <point x="122" y="302"/>
      <point x="122" y="166" type="curve" smooth="yes"/>
      <point x="122" y="125"/>
      <point x="43" y="100"/>
      <point x="0" y="100" type="curve"/>
      <point x="-20" y="50" type="line"/>
    </contour>
  </outline>
</glyph>
<glyph name="lam_lam_heh-ar.liga" format="2">
  <advance width="929"/>
  <outline>
    <contour>
      <point x="167" y="100" type="curve" smooth="yes"/>
      <point x="153" y="100"/>
      <point x="147" y="104"/>
      <point x="147" y="118" type="curve" smooth="yes"/>
      <point x="147" y="139"/>
      <point x="298" y="227"/>
      <point x="331" y="227" type="curve" smooth="yes"/>
      <point x="340" y="227"/>
      <point x="347" y="222"/>
      <point x="345" y="211" type="curve" smooth="yes"/>
      <point x="343" y="198"/>
      <point x="337" y="152"/>
      <point x="335" y="140" type="curve" smooth="yes"/>
      <point x="330" y="109"/>
      <point x="307" y="100"/>
    </contour>
    <contour>
      <point x="538" y="527" type="curve" smooth="yes"/>
      <point x="506" y="527"/>
      <point x="483" y="561"/>
      <point x="483" y="591" type="curve" smooth="yes"/>
      <point x="483" y="615"/>
      <point x="494" y="638"/>
      <point x="505" y="638" type="curve" smooth="yes"/>
      <point x="512" y="638"/>
      <point x="515" y="632"/>
      <point x="515" y="621" type="curve" smooth="yes"/>
      <point x="515" y="603"/>
      <point x="526" y="592"/>
      <point x="544" y="592" type="curve" smooth="yes"/>
      <point x="587" y="592"/>
      <point x="599" y="647"/>
      <point x="618" y="647" type="curve" smooth="yes"/>
      <point x="625" y="647"/>
      <point x="628" y="640"/>
      <point x="628" y="632" type="curve" smooth="yes"/>
      <point x="628" y="617"/>
      <point x="639" y="601"/>
      <point x="661" y="601" type="curve" smooth="yes"/>
      <point x="690" y="601"/>
      <point x="704" y="625"/>
      <point x="704" y="653" type="curve" smooth="yes"/>
      <point x="704" y="668"/>
      <point x="706" y="687"/>
      <point x="718" y="687" type="curve" smooth="yes"/>
      <point x="730" y="687"/>
      <point x="748" y="661"/>
      <point x="748" y="622" type="curve" smooth="yes"/>
      <point x="748" y="569"/>
      <point x="711" y="534"/>
      <point x="668" y="534" type="curve" smooth="yes"/>
      <point x="630" y="534"/>
      <point x="615" y="574"/>
      <point x="605" y="574" type="curve" smooth="yes"/>
      <point x="594" y="574"/>
      <point x="577" y="527"/>
    </contour>
    <contour>
      <point x="620" y="684" type="curve" smooth="yes"/>
      <point x="630" y="684"/>
      <point x="642" y="714"/>
      <point x="642" y="739" type="curve" smooth="yes"/>
      <point x="642" y="780"/>
      <point x="633" y="820"/>
      <point x="619" y="848" type="curve" smooth="yes"/>
      <point x="615" y="855"/>
      <point x="609" y="865"/>
      <point x="604" y="865" type="curve" smooth="yes"/>
      <point x="596" y="865"/>
      <point x="565" y="837"/>
      <point x="565" y="826" type="curve" smooth="yes"/>
      <point x="565" y="810"/>
      <point x="604" y="776"/>
      <point x="604" y="700" type="curve" smooth="yes"/>
      <point x="604" y="689"/>
      <point x="611" y="684"/>
    </contour>
    <contour>
      <point x="103" y="0" type="curve" smooth="yes"/>
      <point x="161" y="0"/>
      <point x="237" y="0"/>
      <point x="287" y="25" type="curve" smooth="yes"/>
      <point x="315" y="39"/>
      <point x="330" y="69"/>
      <point x="338" y="69" type="curve" smooth="yes"/>
      <point x="360" y="69"/>
      <point x="365" y="1"/>
      <point x="451" y="0" type="curve" smooth="yes"/>
      <point x="589" y="-2"/>
      <point x="604" y="121"/>
      <point x="615" y="121" type="curve" smooth="yes"/>
      <point x="626" y="121"/>
      <point x="616" y="0"/>
      <point x="746" y="0" type="curve" smooth="yes"/>
      <point x="825" y="0"/>
      <point x="909" y="1"/>
      <point x="909" y="100" type="curve" smooth="yes"/>
      <point x="909" y="168"/>
      <point x="876" y="358"/>
      <point x="849" y="421" type="curve" smooth="yes"/>
      <point x="843" y="436"/>
      <point x="827" y="473"/>
      <point x="811" y="473" type="curve" smooth="yes"/>
      <point x="798" y="473"/>
      <point x="776" y="408"/>
      <point x="776" y="387" type="curve" smooth="yes"/>
      <point x="776" y="343"/>
      <point x="842" y="201"/>
      <point x="842" y="134" type="curve" smooth="yes"/>
      <point x="842" y="100"/>
      <point x="793" y="100"/>
      <point x="771" y="100" type="curve" smooth="yes"/>
      <point x="644" y="99"/>
      <point x="651" y="295"/>
      <point x="651" y="421" type="curve" smooth="yes"/>
      <point x="651" y="456"/>
      <point x="650" y="473"/>
      <point x="639" y="473" type="curve" smooth="yes"/>
      <point x="626" y="473"/>
      <point x="576" y="405"/>
      <point x="576" y="374" type="curve" smooth="yes"/>
      <point x="576" y="346"/>
      <point x="583" y="263"/>
      <point x="583" y="211" type="curve" smooth="yes"/>
      <point x="583" y="98"/>
      <point x="533" y="100"/>
      <point x="481" y="100" type="curve" smooth="yes"/>
      <point x="463" y="100"/>
      <point x="420" y="100"/>
      <point x="420" y="167" type="curve" smooth="yes"/>
      <point x="420" y="254"/>
      <point x="446" y="366"/>
      <point x="446" y="398" type="curve" smooth="yes"/>
      <point x="446" y="416"/>
      <point x="441" y="420"/>
      <point x="433" y="420" type="curve" smooth="yes"/>
      <point x="419" y="420"/>
      <point x="376" y="352"/>
      <point x="370" y="341" type="curve" smooth="yes"/>
      <point x="362" y="327"/>
      <point x="360" y="310"/>
      <point x="358" y="299" type="curve" smooth="yes"/>
      <point x="355" y="288"/>
      <point x="344" y="285"/>
      <point x="335" y="280" type="curve" smooth="yes"/>
      <point x="273" y="245"/>
      <point x="20" y="155"/>
      <point x="20" y="70" type="curve" smooth="yes"/>
      <point x="20" y="32"/>
      <point x="70" y="0"/>
    </contour>
  </outline>
</glyph>
<glyph name="twodotshorizontalabove-ar" format="2">
  <advance width="320"/>
  <anchor x="185" y="476" name="_top"/>
  <anchor x="160" y="700" name="top"/>
  <outline>
    <contour>
      <point x="10" y="590" type="curve" smooth="yes"/>
      <point x="10" y="575"/>
      <point x="64" y="520"/>
      <point x="80" y="520" type="curve" smooth="yes"/>
      <point x="102" y="520"/>
      <point x="145" y="575"/>
      <point x="160" y="575" type="curve" smooth="yes"/>
      <point x="175" y="575"/>
      <point x="218" y="520"/>
      <point x="240" y="520" type="curve" smooth="yes"/>
      <point x="256" y="520"/>
      <point x="310" y="575"/>
      <point x="310" y="590" type="curve" smooth="yes"/>
      <point x="310" y="606"/>
      <point x="256" y="660"/>
      <point x="240" y="660" type="curve" smooth="yes"/>
      <point x="218" y="660"/>
      <point x="175" y="605"/>
      <point x="160" y="605" type="curve" smooth="yes"/>
      <point x="145" y="605"/>
      <point x="102" y="660"/>
      <point x="80" y="660" type="curve" smooth="yes"/>
      <point x="64" y="660"/>
      <point x="10" y="606"/>
    </contour>
  </outline>
</glyph>
<glyph name="wasla-ar" format="2">
  <advance width="264"/>
  <outline>
    <contour>
      <point x="157" y="756" type="line"/>
      <point x="184" y="757" type="line"/>
      <point x="207" y="767" type="line"/>
      <point x="213" y="780" type="line"/>
      <point x="199" y="792" type="line"/>
      <point x="178" y="786" type="line"/>
    </contour>
    <contour>
      <point x="128" y="774" type="line"/>
      <point x="161" y="809" type="line"/>
      <point x="211" y="825" type="line"/>
      <point x="264" y="786" type="line"/>
      <point x="250" y="716" type="line"/>
      <point x="177" y="675" type="line"/>
      <point x="91" y="691" type="line"/>
      <point x="42" y="703" type="line"/>
      <point x="26" y="682" type="line"/>
      <point x="0" y="683" type="line"/>
      <point x="0" y="704" type="line"/>
      <point x="31" y="770" type="line"/>
      <point x="114" y="766" type="line"/>
    </contour>
  </outline>
</glyph>
<glyph name="waw-ar.001" format="2">
  <advance width="600"/>
  <outline>
    <contour>
      <point x="391" y="136" type="line"/>
      <point x="353" y="122"/>
      <point x="349" y="86"/>
      <point x="276" y="93" type="curve" smooth="yes"/>
      <point x="203" y="100"/>
      <point x="148" y="156"/>
      <point x="141" y="203" type="curve" smooth="yes"/>
      <point x="134" y="250"/>
      <point x="253" y="443"/>
      <point x="301" y="441" type="curve" smooth="yes"/>
      <point x="349" y="439"/>
      <point x="472" y="182"/>
      <point x="467" y="141" type="curve" smooth="yes"/>
      <point x="462" y="100"/>
      <point x="377" y="-344"/>
      <point x="201" y="-341" type="curve" smooth="yes"/>
      <point x="25" y="-338"/>
      <point x="-207" y="-216"/>
      <point x="-205" y="-128" type="curve"/>
      <point x="-119" y="-25" type="line"/>
      <point x="-69" y="-60" type="line"/>
      <point x="-2" y="-116"/>
      <point x="15" y="-239"/>
      <point x="132" y="-229" type="curve" smooth="yes"/>
      <point x="249" y="-219"/>
      <point x="348" y="7"/>
      <point x="359" y="38" type="curve" smooth="yes"/>
    </contour>
    <contour>
      <point x="288" y="216" type="curve" smooth="yes"/>
      <point x="314" y="216"/>
      <point x="336" y="237"/>
      <point x="336" y="264" type="curve" smooth="yes"/>
      <point x="336" y="291"/>
      <point x="314" y="312"/>
      <point x="288" y="312" type="curve" smooth="yes"/>
      <point x="261" y="312"/>
      <point x="239" y="291"/>
      <point x="239" y="264" type="curve" smooth="yes"/>
      <point x="239" y="237"/>
      <point x="261" y="216"/>
    </contour>
  </outline>
</glyph>
<glyph name="yeh_alef-ar.liga" format="2">
  <advance width="411"/>
  <outline>
    <contour>
      <point x="94" y="-188" type="curve" smooth="yes"/>
      <point x="94" y="-203"/>
      <point x="148" y="-258"/>
      <point x="164" y="-258" type="curve" smooth="yes"/>
      <point x="186" y="-258"/>
      <point x="229" y="-203"/>
      <point x="244" y="-203" type="curve" smooth="yes"/>
      <point x="259" y="-203"/>
      <point x="302" y="-258"/>
      <point x="324" y="-258" type="curve" smooth="yes"/>
      <point x="340" y="-258"/>
      <point x="394" y="-203"/>
      <point x="394" y="-188" type="curve" smooth="yes"/>
      <point x="394" y="-172"/>
      <point x="340" y="-118"/>
      <point x="324" y="-118" type="curve" smooth="yes"/>
      <point x="302" y="-118"/>
      <point x="259" y="-173"/>
      <point x="244" y="-173" type="curve" smooth="yes"/>
      <point x="229" y="-173"/>
      <point x="186" y="-118"/>
      <point x="164" y="-118" type="curve" smooth="yes"/>
      <point x="148" y="-118"/>
      <point x="94" y="-172"/>
    </contour>
    <contour>
      <point x="20" y="581" type="curve" smooth="yes"/>
      <point x="20" y="606"/>
      <point x="52" y="700"/>
      <point x="73" y="700" type="curve" smooth="yes"/>
      <point x="86" y="700"/>
      <point x="93" y="689"/>
      <point x="93" y="673" type="curve" smooth="yes"/>
      <point x="93" y="450"/>
      <point x="95" y="100"/>
      <point x="198" y="100" type="curve" smooth="yes"/>
      <point x="318" y="100"/>
      <point x="335" y="126"/>
      <point x="335" y="146" type="curve" smooth="yes"/>
      <point x="335" y="164"/>
      <point x="284" y="203"/>
      <point x="284" y="227" type="curve" smooth="yes"/>
      <point x="284" y="254"/>
      <point x="308" y="325"/>
      <point x="325" y="325" type="curve" smooth="yes"/>
      <point x="350" y="325"/>
      <point x="391" y="240"/>
      <point x="391" y="182" type="curve" smooth="yes"/>
      <point x="391" y="90"/>
      <point x="343" y="0"/>
      <point x="198" y="0" type="curve" smooth="yes"/>
      <point x="117" y="0"/>
      <point x="82" y="34"/>
      <point x="61" y="135" type="curve" smooth="yes"/>
      <point x="36" y="256"/>
      <point x="20" y="529"/>
    </contour>
  </outline>
</glyph>
